<svg width="534" height="683" viewBox="0 0 534 683" fill="none" xmlns="http://www.w3.org/2000/svg">
<path d="M307.333 602.667C299.974 602.667 294 608.641 294 616C294 623.359 299.974 629.333 307.333 629.333C314.693 629.333 320.667 623.359 320.667 616C320.667 608.641 314.693 602.667 307.333 602.667Z" fill="#A8A989"/>
<path d="M40.6666 682.667H467.333C504.094 682.667 534 652.76 534 616V66.6667C534 29.9063 504.094 0 467.333 0H40.6666C18.6093 0 0.666626 17.9427 0.666626 40V642.667C0.666626 664.724 18.6093 682.667 40.6666 682.667ZM107.333 26.6667H467.333C489.391 26.6667 507.333 44.6094 507.333 66.6667V194.667H107.333V26.6667ZM107.333 221.333H507.333V461.333H107.333V221.333ZM107.333 488H507.333V616C507.333 638.057 489.391 656 467.333 656H107.333V488ZM27.3333 40C27.3333 32.6458 33.3125 26.6667 40.6666 26.6667H80.6666V656H40.6666C33.3125 656 27.3333 650.021 27.3333 642.667V40Z" fill="#A8A989"/>
<path d="M307.333 328C299.979 328 294 322.021 294 314.667C294 307.313 299.979 301.333 307.333 301.333C312.057 301.333 317.042 303.745 321.755 308.302C327.047 313.422 335.49 313.286 340.609 307.99C345.729 302.698 345.589 294.26 340.297 289.141C333.531 282.589 326.76 278.885 320.667 276.865V261.333C320.667 253.969 314.698 248 307.333 248C299.969 248 294 253.969 294 261.333V276.958C278.479 282.464 267.333 297.286 267.333 314.667C267.333 336.724 285.276 354.667 307.333 354.667C314.682 354.667 320.667 360.646 320.667 368C320.667 375.354 314.682 381.333 307.333 381.333C301.635 381.333 295.484 377.75 290.016 371.245C285.281 365.609 276.87 364.88 271.234 369.62C265.594 374.359 264.87 382.771 269.604 388.406C276.734 396.885 285.115 402.792 294 405.771V421.333C294 428.698 299.969 434.667 307.333 434.667C314.698 434.667 320.667 428.698 320.667 421.333V405.708C336.182 400.203 347.333 385.38 347.333 368C347.333 345.943 329.391 328 307.333 328Z" fill="#A8A989"/>
<path d="M480.667 616C480.667 608.635 474.698 602.667 467.333 602.667H360.667C353.302 602.667 347.333 608.635 347.333 616C347.333 623.365 353.302 629.333 360.667 629.333H467.333C474.698 629.333 480.667 623.365 480.667 616Z" fill="#A8A989"/>
<path d="M147.333 80H200.667C208.031 80 214 74.0313 214 66.6667C214 59.3021 208.031 53.3333 200.667 53.3333H147.333C139.969 53.3333 134 59.3021 134 66.6667C134 74.0313 139.969 80 147.333 80Z" fill="#A8A989"/>
<path d="M254 106.667H147.333C139.969 106.667 134 112.635 134 120C134 127.365 139.969 133.333 147.333 133.333H254C261.365 133.333 267.333 127.365 267.333 120C267.333 112.635 261.365 106.667 254 106.667Z" fill="#A8A989"/>
</svg>
