<svg width="683" height="683" viewBox="0 0 683 683" fill="none" xmlns="http://www.w3.org/2000/svg">
<path d="M554.667 434.667C562.026 434.667 568 428.693 568 421.333C568 413.974 562.026 408 554.667 408C547.307 408 541.333 413.974 541.333 421.333C541.333 428.693 547.307 434.667 554.667 434.667Z" fill="#A8A989"/>
<path d="M669.333 656H648V288C648 280.635 642.031 274.667 634.667 274.667H554.667C547.302 274.667 541.333 280.635 541.333 288V368C541.333 375.365 547.302 381.333 554.667 381.333C562.031 381.333 568 375.365 568 368V301.333H621.333V656H568V474.667C568 467.302 562.031 461.333 554.667 461.333C547.302 461.333 541.333 467.302 541.333 474.667V656H488V394.667C488 387.302 482.031 381.333 474.667 381.333H394.667C387.302 381.333 381.333 387.302 381.333 394.667V656H328V474.667C328 467.302 322.031 461.333 314.667 461.333H234.667C227.302 461.333 221.333 467.302 221.333 474.667V656H168V528C168 520.635 162.031 514.667 154.667 514.667H74.6667C67.3021 514.667 61.3333 520.635 61.3333 528V656H26.6667V13.3333C26.6667 5.96875 20.6979 0 13.3333 0C5.96875 0 0 5.96875 0 13.3333V669.333C0 676.698 5.96875 682.667 13.3333 682.667H669.333C676.698 682.667 682.667 676.698 682.667 669.333C682.667 661.969 676.698 656 669.333 656ZM141.333 656H88V541.333H141.333V656ZM301.333 656H248V488H301.333V656ZM461.333 656H408V408H461.333V656Z" fill="#A8A989"/>
<path d="M125.234 421.047C118.031 422.578 113.432 429.651 114.958 436.859C116.479 444.047 123.547 448.667 130.766 447.135C303.661 410.495 449.422 306.182 541.391 165.807L563.51 181.297C571.62 186.969 582.896 182.13 584.349 172.328L597.469 83.8594C598.208 78.8646 596.068 73.8802 591.927 70.9844C587.792 68.0885 582.375 67.776 577.932 70.1823L499.281 112.766C490.578 117.474 489.865 129.734 497.979 135.417L519.531 150.505C429.146 288.641 286.135 386.953 125.234 421.047ZM567.177 106.328L561.135 147.078L530.953 125.943L567.177 106.328Z" fill="#A8A989"/>
</svg>
