<svg width="2070" height="333" viewBox="0 0 2070 333" fill="none" xmlns="http://www.w3.org/2000/svg">
<path d="M424.4 135.6V133.6L428 132.2C430.667 131.133 432.467 129.8 433.4 128.2C434.467 126.6 435 124.467 435 121.8V17.4C435 14.6 434.467 12.4 433.4 10.8C432.467 9.2 430.667 7.93333 428 7.00001L424.4 5.6V3.6H481.8C498.067 3.6 509.8 6.6 517 12.6C524.2 18.4667 527.8 25.9333 527.8 35C527.8 41.8 525.133 48 519.8 53.6C514.6 59.0667 505.6 62.9333 492.8 65.2C507.467 66.8 518.2 70.6667 525 76.8C531.8 82.8 535.2 90.1333 535.2 98.8C535.2 103.067 534.267 107.4 532.4 111.8C530.533 116.067 527.333 120 522.8 123.6C518.4 127.2 512.333 130.133 504.6 132.4C496.867 134.533 487.067 135.6 475.2 135.6H424.4ZM464.6 65H473.2C482.133 65 488.533 62.9333 492.4 58.8C496.4 54.6667 498.4 47.4667 498.4 37.2C498.4 26.5333 496.6 18.9333 493 14.4C489.4 9.86667 483.533 7.6 475.4 7.6H464.6V65ZM464.6 131.6H474.6C484.6 131.6 492 128.933 496.8 123.6C501.733 118.267 504.2 109.933 504.2 98.6C504.2 87.9333 501.867 80.3333 497.2 75.8C492.533 71.2667 484.867 69 474.2 69H464.6V131.6Z" fill="white"/>
<path d="M533.905 135.6V133.6L538.905 131.8C541.571 130.733 543.638 129.467 545.105 128C546.571 126.4 547.771 124.2 548.705 121.4L589.905 3.19999H606.905L647.505 122.2C648.571 125.133 649.771 127.4 651.105 129C652.438 130.467 654.505 131.733 657.305 132.8L659.705 133.6V135.6H608.905V133.6L611.905 132.6C614.705 131.533 616.371 130.067 616.905 128.2C617.571 126.2 617.505 123.867 616.705 121.2L607.305 92.4H562.905L553.305 120.6C552.371 123.533 552.038 125.867 552.305 127.6C552.705 129.333 554.305 130.733 557.105 131.8L561.505 133.6V135.6H533.905ZM564.305 88.4H606.105L585.905 26.2L564.305 88.4Z" fill="white"/>
<path d="M729.323 139.2C715.723 139.2 703.723 136.4 693.323 130.8C683.057 125.067 674.99 117 669.123 106.6C663.39 96.0667 660.523 83.6667 660.523 69.4C660.523 55.5333 663.39 43.4 669.123 33C674.857 22.6 683.123 14.5333 693.923 8.80001C704.857 2.93334 718.057 0 733.523 0C740.59 0 747.123 0.800002 753.123 2.4C759.257 4 765.057 6.33333 770.523 9.4L771.323 37.4H769.323L758.123 16.6C756.39 13.2667 754.79 10.8667 753.323 9.4C751.857 7.93333 749.99 6.8 747.723 6.00001C745.59 5.33333 743.59 4.86666 741.723 4.6C739.99 4.2 737.657 4 734.723 4C726.457 4 719.123 6.2 712.723 10.6C706.457 15 701.59 22 698.123 31.6C694.657 41.2 692.923 53.8 692.923 69.4C692.923 84.8667 694.523 97.4667 697.723 107.2C701.057 116.933 705.723 124.067 711.723 128.6C717.723 133 724.657 135.2 732.523 135.2C733.723 135.2 734.857 135.133 735.923 135C737.123 134.733 738.257 134.467 739.323 134.2C741.857 133.8 743.523 132.733 744.323 131C745.123 129.267 745.523 127.2 745.523 124.8V85.2C745.523 80 742.857 76.8 737.523 75.6L728.323 73.2V71.2H784.723V73.2L781.923 74C776.857 75.6 774.323 78.9333 774.323 84V127.4C767.39 131.267 760.323 134.2 753.123 136.2C746.057 138.2 738.123 139.2 729.323 139.2Z" fill="white"/>
<path d="M790.22 135.6V133.6L794.42 132.2C797.087 131.267 798.82 130.067 799.62 128.6C800.42 127 800.82 124.8 800.82 122V17.4C800.82 14.7333 800.42 12.6667 799.62 11.2C798.954 9.6 797.354 8.33334 794.82 7.4L790.22 5.6V3.6H847.42C863.154 3.6 875.22 6.6 883.62 12.6C892.02 18.4667 896.22 26.6667 896.22 37.2C896.22 43.0667 894.02 48.9333 889.62 54.8C885.22 60.6667 878.287 65.2 868.82 68.4L896.62 123.6C897.82 125.867 899.154 127.733 900.62 129.2C902.22 130.533 904.287 131.733 906.82 132.8L909.42 133.8V135.6H873.62L844.02 72.6H830.42V122C830.42 124.533 830.82 126.6 831.62 128.2C832.42 129.8 834.087 131 836.62 131.8L841.42 133.6V135.6H790.22ZM830.42 68.6H840.02C849.62 68.6 856.554 66.0667 860.82 61C865.087 55.8 867.22 48.1333 867.22 38C867.22 27.7333 865.22 20.1333 861.22 15.2C857.22 10.1333 850.487 7.6 841.02 7.6H830.42V68.6Z" fill="white"/>
<path d="M974.5 139.2C966.367 139.2 958.5 137.733 950.9 134.8C943.433 131.867 936.7 127.533 930.7 121.8C924.833 115.933 920.167 108.667 916.7 100C913.233 91.3333 911.5 81.2 911.5 69.6C911.5 58.1333 913.233 48.0667 916.7 39.4C920.167 30.7333 924.9 23.5333 930.9 17.8C936.9 11.9333 943.633 7.53334 951.1 4.6C958.7 1.53333 966.5 0 974.5 0C982.633 0 990.433 1.46667 997.9 4.4C1005.5 7.2 1012.23 11.5333 1018.1 17.4C1024.1 23.1333 1028.83 30.4 1032.3 39.2C1035.77 47.8667 1037.5 58 1037.5 69.6C1037.5 80.9333 1035.77 91 1032.3 99.8C1028.83 108.467 1024.1 115.733 1018.1 121.6C1012.23 127.333 1005.5 131.733 997.9 134.8C990.433 137.733 982.633 139.2 974.5 139.2ZM974.5 135C981.833 135 987.767 133.067 992.3 129.2C996.833 125.2 1000.1 118.467 1002.1 109C1004.23 99.4 1005.3 86.2667 1005.3 69.6C1005.3 52.8 1004.23 39.6667 1002.1 30.2C1000.1 20.6 996.833 13.8667 992.3 10C987.767 6 981.833 4 974.5 4C967.3 4 961.433 6 956.9 10C952.367 13.8667 949.033 20.6 946.9 30.2C944.9 39.6667 943.9 52.8 943.9 69.6C943.9 86.2667 944.9 99.4 946.9 109C949.033 118.467 952.367 125.2 956.9 129.2C961.433 133.067 967.3 135 974.5 135Z" fill="white"/>
<path d="M1042.56 135.6V133.6L1046.16 132.4C1048.83 131.467 1050.63 130.2 1051.56 128.6C1052.5 127 1052.96 124.867 1052.96 122.2C1053.1 114.2 1053.16 106.133 1053.16 98C1053.16 89.8667 1053.16 81.7333 1053.16 73.6V65.6C1053.16 57.6 1053.16 49.6 1053.16 41.6C1053.16 33.4667 1053.1 25.4 1052.96 17.4C1052.96 14.7333 1052.56 12.6 1051.76 11C1051.1 9.4 1049.5 8.13333 1046.96 7.2L1042.56 5.6V3.6H1139.36L1140.76 36.8H1138.76L1127.36 15.8C1126.03 13.2667 1124.5 11.2667 1122.76 9.8C1121.03 8.33333 1118.63 7.6 1115.56 7.6H1083.36C1083.23 17.0667 1083.16 26.7333 1083.16 36.6C1083.16 46.4667 1083.16 56.2667 1083.16 66H1103.96C1107.03 66 1109.3 65.3333 1110.76 64C1112.23 62.6667 1113.63 60.7333 1114.96 58.2L1119.16 50.6H1121.16V85.6H1119.16L1114.76 78C1113.43 75.6 1112.03 73.6667 1110.56 72.2C1109.23 70.7333 1107.03 70 1103.96 70H1083.16C1083.16 79.3333 1083.16 88.2667 1083.16 96.8C1083.16 105.2 1083.23 113.467 1083.36 121.6C1083.36 126.8 1085.9 130.2 1090.96 131.8L1096.96 133.6V135.6H1042.56Z" fill="white"/>
<path d="M1148.81 135.6V133.6L1152.41 132.4C1155.08 131.467 1156.88 130.2 1157.81 128.6C1158.75 127 1159.21 124.867 1159.21 122.2C1159.35 114.2 1159.41 106.133 1159.41 98C1159.41 89.8667 1159.41 81.7333 1159.41 73.6V65.6C1159.41 57.6 1159.41 49.6 1159.41 41.6C1159.41 33.4667 1159.35 25.4 1159.21 17.4C1159.21 14.7333 1158.81 12.6 1158.01 11C1157.35 9.4 1155.75 8.13333 1153.21 7.2L1148.81 5.6V3.6H1245.61L1247.01 36.8H1245.01L1233.61 15.8C1232.28 13.2667 1230.75 11.2667 1229.01 9.8C1227.28 8.33333 1224.88 7.6 1221.81 7.6H1189.61C1189.48 17.0667 1189.41 26.7333 1189.41 36.6C1189.41 46.4667 1189.41 56.2667 1189.41 66H1210.21C1213.28 66 1215.55 65.3333 1217.01 64C1218.48 62.6667 1219.88 60.7333 1221.21 58.2L1225.41 50.6H1227.41V85.6H1225.41L1221.01 78C1219.68 75.6 1218.28 73.6667 1216.81 72.2C1215.48 70.7333 1213.28 70 1210.21 70H1189.41C1189.41 79.3333 1189.41 88.2667 1189.41 96.8C1189.41 105.2 1189.48 113.467 1189.61 121.6C1189.61 126.8 1192.15 130.2 1197.21 131.8L1203.21 133.6V135.6H1148.81Z" fill="white"/>
<path d="M1337.9 136.2L1302.5 17.2C1301.57 14.1333 1300.57 11.9333 1299.5 10.6C1298.44 9.13333 1296.57 7.8 1293.9 6.6L1291.5 5.6V3.6H1344.5V5.6L1340.3 7.2C1337.24 8.4 1335.17 9.86667 1334.1 11.6C1333.04 13.3333 1332.97 15.7333 1333.9 18.8L1355.7 102L1379.3 32.2L1374.7 18C1373.77 15.2 1372.9 13.0667 1372.1 11.6C1371.3 10.1333 1369.97 8.93333 1368.1 8L1363.7 5.6V3.6H1413.9V5.6L1407.7 8C1405.04 8.93333 1403.5 10.3333 1403.1 12.2C1402.84 13.9333 1403.17 16.2 1404.1 19L1429.5 104L1453.5 20.6C1454.44 17.4 1454.77 14.6 1454.5 12.2C1454.24 9.8 1452.57 8.06667 1449.5 7.00001L1445.3 5.6V3.6H1473.1V5.6L1467.9 7.6C1465.24 8.53333 1463.37 10 1462.3 12C1461.24 14 1460.3 16.4667 1459.5 19.4L1426.3 136.2H1412.5L1382.5 42.2L1351.7 136.2H1337.9Z" fill="white"/>
<path d="M1479.28 135.6V133.6L1483.88 131.8C1486.15 130.867 1487.68 129.667 1488.48 128.2C1489.42 126.6 1489.88 124.467 1489.88 121.8V17.4C1489.88 14.7333 1489.48 12.6667 1488.68 11.2C1488.02 9.6 1486.42 8.33334 1483.88 7.4L1479.28 5.6V3.6H1575.08L1576.28 34.4H1574.28L1565.68 15.6C1564.48 13.2 1563.22 11.2667 1561.88 9.8C1560.55 8.33333 1558.55 7.6 1555.88 7.6H1519.88V65.4H1541.28C1543.95 65.4 1545.95 64.7333 1547.28 63.4C1548.75 61.9333 1550.02 60 1551.08 57.6L1555.08 49.6H1557.08V85.6H1555.08L1551.08 77.2C1549.88 74.8 1548.62 72.9333 1547.28 71.6C1545.95 70.1333 1543.95 69.4 1541.28 69.4H1519.88V131.6H1560.28C1562.95 131.6 1565.02 130.933 1566.48 129.6C1567.95 128.133 1569.15 126.133 1570.08 123.6L1578.28 104.8H1580.28L1579.08 135.6H1479.28Z" fill="white"/>
<path d="M1587.42 135.6V133.6L1592.42 131.8C1595.09 130.733 1597.15 129.467 1598.62 128C1600.09 126.4 1601.29 124.2 1602.22 121.4L1643.42 3.19999H1660.42L1701.02 122.2C1702.09 125.133 1703.29 127.4 1704.62 129C1705.95 130.467 1708.02 131.733 1710.82 132.8L1713.22 133.6V135.6H1662.42V133.6L1665.42 132.6C1668.22 131.533 1669.89 130.067 1670.42 128.2C1671.09 126.2 1671.02 123.867 1670.22 121.2L1660.82 92.4H1616.42L1606.82 120.6C1605.89 123.533 1605.55 125.867 1605.82 127.6C1606.22 129.333 1607.82 130.733 1610.62 131.8L1615.02 133.6V135.6H1587.42ZM1617.82 88.4H1659.62L1639.42 26.2L1617.82 88.4Z" fill="white"/>
<path d="M1719.52 135.6V133.6L1723.72 132C1726.52 130.933 1728.25 129.667 1728.92 128.2C1729.72 126.6 1730.12 124.467 1730.12 121.8V17.4C1730.12 14.7333 1729.72 12.6 1728.92 11C1728.12 9.4 1726.38 8.13333 1723.72 7.2L1719.52 5.6V3.6H1770.52V5.6L1766.92 7.2C1764.38 8.13333 1762.65 9.46666 1761.72 11.2C1760.78 12.8 1760.32 14.9333 1760.32 17.6V131.6H1791.12C1796.05 131.6 1799.65 130.4 1801.92 128C1804.32 125.6 1806.58 122.133 1808.72 117.6L1816.52 100.8H1818.52L1816.72 135.6H1719.52Z" fill="white"/>
<path d="M1838.31 135.6V133.6L1846.51 131.6C1851.98 130.4 1854.71 127.067 1854.71 121.6V7.6H1837.71C1832.78 7.6 1829.24 8.93333 1827.11 11.6C1824.98 14.1333 1822.71 17.6667 1820.31 22.2L1813.11 36.2H1811.11L1812.11 3.6H1927.51L1928.31 36.2H1926.31L1919.11 22.2C1916.84 17.6667 1914.64 14.1333 1912.51 11.6C1910.38 8.93333 1906.84 7.6 1901.91 7.6H1884.91V121.6C1884.91 127.067 1887.64 130.4 1893.11 131.6L1901.31 133.6V135.6H1838.31Z" fill="white"/>
<path d="M1936.9 135.6V133.6L1940.9 132C1943.57 131.067 1945.3 129.8 1946.1 128.2C1947.03 126.6 1947.5 124.533 1947.5 122V17.4C1947.5 14.7333 1947.03 12.6 1946.1 11C1945.3 9.4 1943.57 8.13333 1940.9 7.2L1936.9 5.6V3.6H1987.7V5.6L1984.3 7.00001C1981.77 7.93333 1980.03 9.2 1979.1 10.8C1978.17 12.2667 1977.7 14.3333 1977.7 17V65.6H2025.5V17C2025.5 14.3333 2025.03 12.2667 2024.1 10.8C2023.3 9.2 2021.57 7.93333 2018.9 7.00001L2015.3 5.6V3.6H2066.3V5.6L2062.3 7.2C2059.77 8.13333 2058.03 9.4 2057.1 11C2056.17 12.6 2055.7 14.7333 2055.7 17.4V122C2055.7 124.533 2056.17 126.6 2057.1 128.2C2058.03 129.8 2059.77 131.067 2062.3 132L2066.3 133.6V135.6H2015.3V133.6L2018.9 132.4C2021.57 131.333 2023.3 130.067 2024.1 128.6C2025.03 127 2025.5 124.867 2025.5 122.2V69.6H1977.7V122.2C1977.7 127.133 1979.9 130.533 1984.3 132.4L1987.7 133.6V135.6H1936.9Z" fill="white"/>
<path d="M433.824 286.355C432.384 286.355 431.268 285.959 430.476 285.167C429.756 284.303 429.396 283.151 429.396 281.711V213.995C429.396 212.483 429.792 211.367 430.584 210.647C431.376 209.855 432.492 209.459 433.932 209.459H459.528C467.664 209.459 473.928 211.475 478.32 215.507C482.712 219.467 484.908 225.083 484.908 232.355C484.908 239.555 482.712 245.171 478.32 249.203C473.928 253.235 467.664 255.251 459.528 255.251H438.252V281.711C438.252 283.151 437.892 284.303 437.172 285.167C436.452 285.959 435.336 286.355 433.824 286.355ZM438.252 247.799H458.448C464.28 247.799 468.672 246.503 471.624 243.911C474.648 241.247 476.16 237.395 476.16 232.355C476.16 227.243 474.648 223.391 471.624 220.799C468.672 218.135 464.28 216.803 458.448 216.803H438.252V247.799Z" fill="white" fill-opacity="0.5"/>
<path d="M499.925 286.355C498.485 286.355 497.369 285.959 496.577 285.167C495.857 284.375 495.497 283.259 495.497 281.819V236.783C495.497 235.343 495.857 234.263 496.577 233.543C497.297 232.751 498.341 232.355 499.709 232.355C501.077 232.355 502.121 232.751 502.841 233.543C503.633 234.263 504.029 235.343 504.029 236.783V245.531H502.949C504.101 241.283 506.297 238.007 509.537 235.703C512.777 233.399 516.773 232.175 521.525 232.031C522.605 231.959 523.469 232.211 524.117 232.787C524.765 233.291 525.125 234.191 525.197 235.487C525.269 236.711 524.981 237.683 524.333 238.403C523.685 239.123 522.677 239.555 521.309 239.699L519.581 239.915C514.685 240.347 510.905 241.931 508.241 244.667C505.649 247.331 504.353 251.003 504.353 255.683V281.819C504.353 283.259 503.957 284.375 503.165 285.167C502.445 285.959 501.365 286.355 499.925 286.355Z" fill="white" fill-opacity="0.5"/>
<path d="M555.387 286.571C550.275 286.571 545.847 285.455 542.103 283.223C538.359 280.991 535.443 277.859 533.355 273.827C531.339 269.723 530.331 264.899 530.331 259.355C530.331 255.179 530.907 251.435 532.059 248.123C533.211 244.739 534.903 241.859 537.135 239.483C539.367 237.107 541.995 235.307 545.019 234.083C548.115 232.787 551.571 232.139 555.387 232.139C560.499 232.139 564.927 233.255 568.671 235.487C572.415 237.719 575.295 240.887 577.311 244.991C579.399 249.023 580.443 253.811 580.443 259.355C580.443 263.531 579.867 267.275 578.715 270.587C577.563 273.899 575.871 276.779 573.639 279.227C571.407 281.603 568.743 283.439 565.647 284.735C562.623 285.959 559.203 286.571 555.387 286.571ZM555.387 279.551C558.627 279.551 561.471 278.759 563.919 277.175C566.367 275.591 568.239 273.287 569.535 270.263C570.903 267.239 571.587 263.603 571.587 259.355C571.587 252.803 570.111 247.799 567.159 244.343C564.279 240.887 560.355 239.159 555.387 239.159C552.075 239.159 549.195 239.951 546.747 241.535C544.371 243.047 542.499 245.315 541.131 248.339C539.835 251.291 539.187 254.963 539.187 259.355C539.187 265.835 540.663 270.839 543.615 274.367C546.567 277.823 550.491 279.551 555.387 279.551Z" fill="white" fill-opacity="0.5"/>
<path d="M600.184 286.355C598.816 286.355 597.736 285.959 596.944 285.167C596.224 284.375 595.864 283.259 595.864 281.819V239.915H588.952C587.8 239.915 586.864 239.627 586.144 239.051C585.496 238.403 585.172 237.539 585.172 236.459C585.172 235.379 585.496 234.551 586.144 233.975C586.864 233.399 587.8 233.111 588.952 233.111H598.24L595.864 235.379V231.275C595.864 224.435 597.52 219.215 600.832 215.615C604.216 212.015 609.148 209.927 615.628 209.351L618.76 209.027C619.768 208.955 620.56 209.135 621.136 209.567C621.784 209.999 622.18 210.539 622.324 211.187C622.54 211.835 622.576 212.519 622.432 213.239C622.288 213.887 621.964 214.463 621.46 214.967C620.956 215.471 620.344 215.759 619.624 215.831L617.14 216.047C612.748 216.407 609.544 217.739 607.528 220.043C605.584 222.347 604.612 225.731 604.612 230.195V234.731L603.316 233.111H616.276C617.5 233.111 618.436 233.399 619.084 233.975C619.732 234.551 620.056 235.379 620.056 236.459C620.056 237.539 619.732 238.403 619.084 239.051C618.436 239.627 617.5 239.915 616.276 239.915H604.612V281.819C604.612 284.843 603.136 286.355 600.184 286.355Z" fill="white" fill-opacity="0.5"/>
<path d="M651.196 286.571C645.652 286.571 640.864 285.491 636.832 283.331C632.872 281.099 629.776 277.967 627.544 273.935C625.384 269.903 624.304 265.079 624.304 259.463C624.304 253.991 625.384 249.239 627.544 245.207C629.704 241.103 632.656 237.899 636.4 235.595C640.216 233.291 644.608 232.139 649.576 232.139C653.104 232.139 656.272 232.751 659.08 233.975C661.888 235.127 664.264 236.819 666.208 239.051C668.224 241.283 669.736 243.983 670.744 247.151C671.824 250.319 672.364 253.883 672.364 257.843C672.364 258.995 672.04 259.859 671.392 260.435C670.744 260.939 669.808 261.191 668.584 261.191H631V255.467H666.532L664.804 256.871C664.804 252.983 664.228 249.707 663.076 247.043C661.924 244.307 660.232 242.219 658 240.779C655.84 239.339 653.104 238.619 649.792 238.619C646.12 238.619 642.988 239.483 640.396 241.211C637.876 242.867 635.968 245.207 634.672 248.231C633.376 251.183 632.728 254.639 632.728 258.599V259.247C632.728 265.871 634.312 270.911 637.48 274.367C640.72 277.823 645.292 279.551 651.196 279.551C653.644 279.551 656.056 279.227 658.432 278.579C660.88 277.931 663.256 276.851 665.56 275.339C666.568 274.691 667.468 274.403 668.26 274.475C669.124 274.475 669.808 274.727 670.312 275.231C670.816 275.663 671.14 276.239 671.284 276.959C671.5 277.607 671.428 278.327 671.068 279.119C670.78 279.911 670.168 280.595 669.232 281.171C666.856 282.899 664.048 284.231 660.808 285.167C657.568 286.103 654.364 286.571 651.196 286.571Z" fill="white" fill-opacity="0.5"/>
<path d="M702.736 286.571C699.496 286.571 696.22 286.175 692.908 285.383C689.668 284.591 686.644 283.223 683.836 281.279C683.116 280.775 682.612 280.199 682.324 279.551C682.036 278.831 681.928 278.147 682 277.499C682.144 276.779 682.432 276.167 682.864 275.663C683.368 275.159 683.944 274.871 684.592 274.799C685.312 274.655 686.104 274.799 686.968 275.231C689.776 276.959 692.476 278.183 695.068 278.903C697.732 279.551 700.36 279.875 702.952 279.875C707.056 279.875 710.152 279.119 712.24 277.607C714.328 276.095 715.372 274.043 715.372 271.451C715.372 269.435 714.688 267.851 713.32 266.699C711.952 265.475 709.792 264.539 706.84 263.891L697.012 261.731C692.476 260.795 689.092 259.175 686.86 256.871C684.7 254.567 683.62 251.579 683.62 247.907C683.62 244.667 684.448 241.895 686.104 239.591C687.832 237.215 690.244 235.379 693.34 234.083C696.436 232.787 700.036 232.139 704.14 232.139C707.308 232.139 710.296 232.571 713.104 233.435C715.984 234.227 718.576 235.523 720.88 237.323C721.6 237.827 722.068 238.439 722.284 239.159C722.572 239.807 722.608 240.491 722.392 241.211C722.248 241.859 721.924 242.435 721.42 242.939C720.916 243.371 720.304 243.623 719.584 243.695C718.864 243.767 718.108 243.551 717.316 243.047C715.156 241.607 712.96 240.563 710.728 239.915C708.496 239.195 706.3 238.835 704.14 238.835C700.108 238.835 697.048 239.627 694.96 241.211C692.872 242.795 691.828 244.883 691.828 247.475C691.828 249.491 692.476 251.147 693.772 252.443C695.068 253.739 697.084 254.675 699.82 255.251L709.648 257.303C714.328 258.311 717.82 259.931 720.124 262.163C722.5 264.323 723.688 267.275 723.688 271.019C723.688 275.771 721.78 279.551 717.964 282.359C714.148 285.167 709.072 286.571 702.736 286.571Z" fill="white" fill-opacity="0.5"/>
<path d="M754.732 286.571C751.492 286.571 748.217 286.175 744.905 285.383C741.665 284.591 738.64 283.223 735.832 281.279C735.112 280.775 734.608 280.199 734.32 279.551C734.032 278.831 733.924 278.147 733.996 277.499C734.14 276.779 734.429 276.167 734.861 275.663C735.365 275.159 735.941 274.871 736.589 274.799C737.309 274.655 738.101 274.799 738.965 275.231C741.773 276.959 744.472 278.183 747.064 278.903C749.728 279.551 752.356 279.875 754.948 279.875C759.052 279.875 762.149 279.119 764.237 277.607C766.325 276.095 767.368 274.043 767.368 271.451C767.368 269.435 766.684 267.851 765.316 266.699C763.948 265.475 761.788 264.539 758.836 263.891L749.008 261.731C744.472 260.795 741.089 259.175 738.857 256.871C736.697 254.567 735.616 251.579 735.616 247.907C735.616 244.667 736.444 241.895 738.1 239.591C739.828 237.215 742.24 235.379 745.336 234.083C748.432 232.787 752.033 232.139 756.137 232.139C759.305 232.139 762.292 232.571 765.1 233.435C767.98 234.227 770.572 235.523 772.876 237.323C773.596 237.827 774.064 238.439 774.28 239.159C774.568 239.807 774.604 240.491 774.388 241.211C774.244 241.859 773.921 242.435 773.417 242.939C772.913 243.371 772.301 243.623 771.581 243.695C770.861 243.767 770.104 243.551 769.312 243.047C767.152 241.607 764.956 240.563 762.724 239.915C760.492 239.195 758.297 238.835 756.137 238.835C752.105 238.835 749.044 239.627 746.956 241.211C744.868 242.795 743.824 244.883 743.824 247.475C743.824 249.491 744.472 251.147 745.768 252.443C747.064 253.739 749.08 254.675 751.816 255.251L761.645 257.303C766.325 258.311 769.816 259.931 772.12 262.163C774.496 264.323 775.685 267.275 775.685 271.019C775.685 275.771 773.777 279.551 769.961 282.359C766.145 285.167 761.068 286.571 754.732 286.571Z" fill="white" fill-opacity="0.5"/>
<path d="M793.337 286.139C791.897 286.139 790.817 285.743 790.097 284.951C789.377 284.087 789.017 282.899 789.017 281.387V237.215C789.017 235.703 789.377 234.551 790.097 233.759C790.817 232.967 791.897 232.571 793.337 232.571C794.705 232.571 795.785 232.967 796.577 233.759C797.369 234.551 797.765 235.703 797.765 237.215V281.387C797.765 282.899 797.369 284.087 796.577 284.951C795.857 285.743 794.777 286.139 793.337 286.139ZM793.337 220.475C791.537 220.475 790.133 220.007 789.125 219.071C788.117 218.063 787.613 216.731 787.613 215.075C787.613 213.347 788.117 212.051 789.125 211.187C790.133 210.251 791.537 209.783 793.337 209.783C795.209 209.783 796.613 210.251 797.549 211.187C798.557 212.051 799.061 213.347 799.061 215.075C799.061 216.731 798.557 218.063 797.549 219.071C796.613 220.007 795.209 220.475 793.337 220.475Z" fill="white" fill-opacity="0.5"/>
<path d="M835.934 286.571C830.822 286.571 826.394 285.455 822.65 283.223C818.906 280.991 815.99 277.859 813.902 273.827C811.886 269.723 810.878 264.899 810.878 259.355C810.878 255.179 811.454 251.435 812.606 248.123C813.758 244.739 815.45 241.859 817.682 239.483C819.914 237.107 822.542 235.307 825.566 234.083C828.662 232.787 832.118 232.139 835.934 232.139C841.046 232.139 845.474 233.255 849.218 235.487C852.962 237.719 855.842 240.887 857.858 244.991C859.946 249.023 860.99 253.811 860.99 259.355C860.99 263.531 860.414 267.275 859.262 270.587C858.11 273.899 856.418 276.779 854.186 279.227C851.954 281.603 849.29 283.439 846.194 284.735C843.17 285.959 839.75 286.571 835.934 286.571ZM835.934 279.551C839.174 279.551 842.018 278.759 844.466 277.175C846.914 275.591 848.786 273.287 850.082 270.263C851.45 267.239 852.134 263.603 852.134 259.355C852.134 252.803 850.658 247.799 847.706 244.343C844.826 240.887 840.902 239.159 835.934 239.159C832.622 239.159 829.742 239.951 827.294 241.535C824.918 243.047 823.046 245.315 821.678 248.339C820.382 251.291 819.734 254.963 819.734 259.355C819.734 265.835 821.21 270.839 824.162 274.367C827.114 277.823 831.038 279.551 835.934 279.551Z" fill="white" fill-opacity="0.5"/>
<path d="M878.45 286.355C877.01 286.355 875.93 285.959 875.21 285.167C874.49 284.375 874.13 283.259 874.13 281.819V236.783C874.13 235.343 874.49 234.263 875.21 233.543C875.93 232.751 876.974 232.355 878.342 232.355C879.71 232.355 880.754 232.751 881.474 233.543C882.266 234.263 882.662 235.343 882.662 236.783V246.071L881.474 244.775C882.986 240.599 885.434 237.467 888.818 235.379C892.274 233.219 896.234 232.139 900.698 232.139C904.874 232.139 908.33 232.895 911.066 234.407C913.874 235.919 915.962 238.223 917.33 241.319C918.698 244.343 919.382 248.195 919.382 252.875V281.819C919.382 283.259 918.986 284.375 918.194 285.167C917.474 285.959 916.43 286.355 915.062 286.355C913.622 286.355 912.506 285.959 911.714 285.167C910.994 284.375 910.634 283.259 910.634 281.819V253.415C910.634 248.519 909.662 244.955 907.718 242.723C905.846 240.419 902.822 239.267 898.646 239.267C893.822 239.267 889.97 240.779 887.09 243.803C884.282 246.755 882.878 250.715 882.878 255.683V281.819C882.878 284.843 881.402 286.355 878.45 286.355Z" fill="white" fill-opacity="0.5"/>
<path d="M952.037 286.571C948.437 286.571 945.197 285.887 942.317 284.519C939.509 283.079 937.277 281.135 935.621 278.687C933.965 276.239 933.137 273.503 933.137 270.479C933.137 266.591 934.109 263.531 936.053 261.299C938.069 259.067 941.345 257.483 945.881 256.547C950.489 255.611 956.753 255.143 964.673 255.143H969.533V260.867H964.781C958.949 260.867 954.341 261.155 950.957 261.731C947.645 262.235 945.305 263.135 943.937 264.431C942.641 265.727 941.993 267.563 941.993 269.939C941.993 272.891 943.001 275.303 945.017 277.175C947.105 279.047 949.913 279.983 953.441 279.983C956.321 279.983 958.841 279.299 961.001 277.931C963.233 276.563 964.961 274.691 966.185 272.315C967.481 269.939 968.129 267.203 968.129 264.107V251.795C968.129 247.331 967.229 244.127 965.429 242.183C963.629 240.167 960.677 239.159 956.573 239.159C954.053 239.159 951.533 239.483 949.013 240.131C946.493 240.779 943.829 241.823 941.021 243.263C940.013 243.767 939.149 243.947 938.429 243.803C937.709 243.587 937.133 243.191 936.701 242.615C936.269 242.039 936.017 241.391 935.945 240.671C935.873 239.879 936.017 239.123 936.377 238.403C936.809 237.683 937.457 237.107 938.321 236.675C941.489 235.091 944.621 233.939 947.717 233.219C950.813 232.499 953.765 232.139 956.573 232.139C961.109 232.139 964.853 232.895 967.805 234.407C970.757 235.847 972.953 238.079 974.393 241.103C975.833 244.055 976.553 247.871 976.553 252.551V281.819C976.553 283.259 976.193 284.375 975.473 285.167C974.825 285.959 973.853 286.355 972.557 286.355C971.189 286.355 970.145 285.959 969.425 285.167C968.705 284.375 968.345 283.259 968.345 281.819V273.395H969.317C968.741 276.131 967.625 278.471 965.969 280.415C964.385 282.359 962.405 283.871 960.029 284.951C957.653 286.031 954.989 286.571 952.037 286.571Z" fill="white" fill-opacity="0.5"/>
<path d="M1008.77 286.571C1003.58 286.571 999.622 284.987 996.886 281.819C994.15 278.651 992.782 274.115 992.782 268.211V213.131C992.782 211.691 993.142 210.611 993.862 209.891C994.582 209.099 995.662 208.703 997.102 208.703C998.47 208.703 999.55 209.099 1000.34 209.891C1001.13 210.611 1001.53 211.691 1001.53 213.131V267.563C1001.53 271.451 1002.29 274.367 1003.8 276.311C1005.38 278.183 1007.69 279.119 1010.71 279.119C1011.36 279.119 1011.93 279.083 1012.44 279.011C1012.94 278.939 1013.45 278.903 1013.95 278.903C1014.74 278.831 1015.28 279.011 1015.57 279.443C1015.93 279.875 1016.11 280.739 1016.11 282.035C1016.11 283.331 1015.82 284.303 1015.25 284.951C1014.67 285.599 1013.73 286.031 1012.44 286.247C1011.86 286.319 1011.25 286.391 1010.6 286.463C1009.95 286.535 1009.34 286.571 1008.77 286.571Z" fill="white" fill-opacity="0.5"/>
<path d="M1078.18 286.355C1076.88 286.355 1075.84 286.031 1075.05 285.383C1074.25 284.663 1073.61 283.619 1073.1 282.251L1049.23 214.103C1048.73 212.591 1048.84 211.331 1049.56 210.323C1050.35 209.243 1051.58 208.703 1053.23 208.703C1054.46 208.703 1055.43 209.027 1056.15 209.675C1056.87 210.251 1057.48 211.187 1057.98 212.483L1080.34 278.039H1076.56L1099.35 212.807C1099.85 211.439 1100.46 210.431 1101.18 209.783C1101.9 209.063 1102.87 208.703 1104.1 208.703C1105.25 208.703 1106.15 209.063 1106.8 209.783C1107.52 210.431 1108.13 211.439 1108.64 212.807L1131.1 278.039H1127.75L1150.32 212.483C1150.68 211.259 1151.22 210.323 1151.94 209.675C1152.73 209.027 1153.74 208.703 1154.97 208.703C1156.48 208.703 1157.6 209.207 1158.32 210.215C1159.04 211.223 1159.11 212.519 1158.53 214.103L1134.55 282.251C1134.05 283.619 1133.4 284.663 1132.61 285.383C1131.89 286.031 1130.85 286.355 1129.48 286.355C1128.18 286.355 1127.14 286.031 1126.35 285.383C1125.63 284.663 1124.98 283.619 1124.4 282.251L1102.7 219.719H1105.07L1083.15 282.251C1082.64 283.619 1082.03 284.663 1081.31 285.383C1080.59 286.031 1079.55 286.355 1078.18 286.355Z" fill="white" fill-opacity="0.5"/>
<path d="M1188.77 286.571C1183.23 286.571 1178.44 285.491 1174.41 283.331C1170.45 281.099 1167.35 277.967 1165.12 273.935C1162.96 269.903 1161.88 265.079 1161.88 259.463C1161.88 253.991 1162.96 249.239 1165.12 245.207C1167.28 241.103 1170.23 237.899 1173.97 235.595C1177.79 233.291 1182.18 232.139 1187.15 232.139C1190.68 232.139 1193.85 232.751 1196.65 233.975C1199.46 235.127 1201.84 236.819 1203.78 239.051C1205.8 241.283 1207.31 243.983 1208.32 247.151C1209.4 250.319 1209.94 253.883 1209.94 257.843C1209.94 258.995 1209.61 259.859 1208.97 260.435C1208.32 260.939 1207.38 261.191 1206.16 261.191H1168.57V255.467H1204.11L1202.38 256.871C1202.38 252.983 1201.8 249.707 1200.65 247.043C1199.5 244.307 1197.81 242.219 1195.57 240.779C1193.41 239.339 1190.68 238.619 1187.37 238.619C1183.69 238.619 1180.56 239.483 1177.97 241.211C1175.45 242.867 1173.54 245.207 1172.25 248.231C1170.95 251.183 1170.3 254.639 1170.3 258.599V259.247C1170.3 265.871 1171.89 270.911 1175.05 274.367C1178.29 277.823 1182.87 279.551 1188.77 279.551C1191.22 279.551 1193.63 279.227 1196.01 278.579C1198.45 277.931 1200.83 276.851 1203.13 275.339C1204.14 274.691 1205.04 274.403 1205.83 274.475C1206.7 274.475 1207.38 274.727 1207.89 275.231C1208.39 275.663 1208.71 276.239 1208.86 276.959C1209.07 277.607 1209 278.327 1208.64 279.119C1208.35 279.911 1207.74 280.595 1206.81 281.171C1204.43 282.899 1201.62 284.231 1198.38 285.167C1195.14 286.103 1191.94 286.571 1188.77 286.571Z" fill="white" fill-opacity="0.5"/>
<path d="M1239.12 286.571C1235.52 286.571 1232.28 285.887 1229.4 284.519C1226.59 283.079 1224.36 281.135 1222.71 278.687C1221.05 276.239 1220.22 273.503 1220.22 270.479C1220.22 266.591 1221.19 263.531 1223.14 261.299C1225.15 259.067 1228.43 257.483 1232.97 256.547C1237.57 255.611 1243.84 255.143 1251.76 255.143H1256.62V260.867H1251.87C1246.03 260.867 1241.43 261.155 1238.04 261.731C1234.73 262.235 1232.39 263.135 1231.02 264.431C1229.73 265.727 1229.08 267.563 1229.08 269.939C1229.08 272.891 1230.09 275.303 1232.1 277.175C1234.19 279.047 1237 279.983 1240.53 279.983C1243.41 279.983 1245.93 279.299 1248.09 277.931C1250.32 276.563 1252.05 274.691 1253.27 272.315C1254.57 269.939 1255.21 267.203 1255.21 264.107V251.795C1255.21 247.331 1254.31 244.127 1252.51 242.183C1250.71 240.167 1247.76 239.159 1243.66 239.159C1241.14 239.159 1238.62 239.483 1236.1 240.131C1233.58 240.779 1230.91 241.823 1228.11 243.263C1227.1 243.767 1226.23 243.947 1225.51 243.803C1224.79 243.587 1224.22 243.191 1223.79 242.615C1223.35 242.039 1223.1 241.391 1223.03 240.671C1222.96 239.879 1223.1 239.123 1223.46 238.403C1223.89 237.683 1224.54 237.107 1225.41 236.675C1228.57 235.091 1231.71 233.939 1234.8 233.219C1237.9 232.499 1240.85 232.139 1243.66 232.139C1248.19 232.139 1251.94 232.895 1254.89 234.407C1257.84 235.847 1260.04 238.079 1261.48 241.103C1262.92 244.055 1263.64 247.871 1263.64 252.551V281.819C1263.64 283.259 1263.28 284.375 1262.56 285.167C1261.91 285.959 1260.94 286.355 1259.64 286.355C1258.27 286.355 1257.23 285.959 1256.51 285.167C1255.79 284.375 1255.43 283.259 1255.43 281.819V273.395H1256.4C1255.83 276.131 1254.71 278.471 1253.05 280.415C1251.47 282.359 1249.49 283.871 1247.11 284.951C1244.74 286.031 1242.07 286.571 1239.12 286.571Z" fill="white" fill-opacity="0.5"/>
<path d="M1295.85 286.571C1290.67 286.571 1286.71 284.987 1283.97 281.819C1281.24 278.651 1279.87 274.115 1279.87 268.211V213.131C1279.87 211.691 1280.23 210.611 1280.95 209.891C1281.67 209.099 1282.75 208.703 1284.19 208.703C1285.56 208.703 1286.64 209.099 1287.43 209.891C1288.22 210.611 1288.62 211.691 1288.62 213.131V267.563C1288.62 271.451 1289.37 274.367 1290.88 276.311C1292.47 278.183 1294.77 279.119 1297.8 279.119C1298.44 279.119 1299.02 279.083 1299.52 279.011C1300.03 278.939 1300.53 278.903 1301.04 278.903C1301.83 278.831 1302.37 279.011 1302.66 279.443C1303.02 279.875 1303.2 280.739 1303.2 282.035C1303.2 283.331 1302.91 284.303 1302.33 284.951C1301.76 285.599 1300.82 286.031 1299.52 286.247C1298.95 286.319 1298.34 286.391 1297.69 286.463C1297.04 286.535 1296.43 286.571 1295.85 286.571Z" fill="white" fill-opacity="0.5"/>
<path d="M1331.94 286.571C1327.83 286.571 1324.38 285.851 1321.57 284.411C1318.83 282.899 1316.78 280.739 1315.41 277.931C1314.04 275.051 1313.36 271.559 1313.36 267.455V239.915H1306.12C1304.9 239.915 1303.96 239.627 1303.32 239.051C1302.67 238.403 1302.34 237.539 1302.34 236.459C1302.34 235.379 1302.67 234.551 1303.32 233.975C1303.96 233.399 1304.9 233.111 1306.12 233.111H1313.36V220.691C1313.36 219.251 1313.76 218.171 1314.55 217.451C1315.34 216.659 1316.42 216.263 1317.79 216.263C1319.16 216.263 1320.2 216.659 1320.92 217.451C1321.71 218.171 1322.11 219.251 1322.11 220.691V233.111H1335.72C1336.94 233.111 1337.88 233.399 1338.52 233.975C1339.17 234.551 1339.5 235.379 1339.5 236.459C1339.5 237.539 1339.17 238.403 1338.52 239.051C1337.88 239.627 1336.94 239.915 1335.72 239.915H1322.11V266.591C1322.11 270.695 1322.97 273.827 1324.7 275.987C1326.43 278.075 1329.24 279.119 1333.12 279.119C1334.49 279.119 1335.64 278.975 1336.58 278.687C1337.59 278.399 1338.42 278.255 1339.06 278.255C1339.71 278.183 1340.25 278.399 1340.68 278.903C1341.12 279.407 1341.33 280.271 1341.33 281.495C1341.33 282.359 1341.15 283.151 1340.79 283.871C1340.5 284.591 1339.96 285.095 1339.17 285.383C1338.31 285.671 1337.16 285.923 1335.72 286.139C1334.35 286.427 1333.09 286.571 1331.94 286.571Z" fill="white" fill-opacity="0.5"/>
<path d="M1353.59 286.355C1352.15 286.355 1351.07 285.959 1350.35 285.167C1349.63 284.375 1349.27 283.259 1349.27 281.819V213.131C1349.27 211.691 1349.63 210.611 1350.35 209.891C1351.07 209.099 1352.15 208.703 1353.59 208.703C1354.95 208.703 1356.03 209.099 1356.83 209.891C1357.62 210.611 1358.01 211.691 1358.01 213.131V244.775H1356.61C1358.12 240.599 1360.57 237.467 1363.95 235.379C1367.41 233.219 1371.37 232.139 1375.83 232.139C1380.01 232.139 1383.47 232.895 1386.2 234.407C1389.01 235.919 1391.1 238.223 1392.47 241.319C1393.83 244.343 1394.52 248.195 1394.52 252.875V281.819C1394.52 283.259 1394.12 284.375 1393.33 285.167C1392.61 285.959 1391.57 286.355 1390.2 286.355C1388.76 286.355 1387.64 285.959 1386.85 285.167C1386.13 284.375 1385.77 283.259 1385.77 281.819V253.415C1385.77 248.519 1384.8 244.955 1382.85 242.723C1380.98 240.419 1377.96 239.267 1373.78 239.267C1368.96 239.267 1365.11 240.779 1362.23 243.803C1359.42 246.755 1358.01 250.715 1358.01 255.683V281.819C1358.01 284.843 1356.54 286.355 1353.59 286.355Z" fill="white" fill-opacity="0.5"/>
<path d="M1444 286.355C1442.71 286.355 1441.7 285.995 1440.98 285.275C1440.26 284.483 1439.9 283.403 1439.9 282.035V213.023C1439.9 211.583 1440.26 210.503 1440.98 209.783C1441.7 209.063 1442.71 208.703 1444 208.703C1445.15 208.703 1446.05 208.955 1446.7 209.459C1447.42 209.891 1448.07 210.647 1448.65 211.727L1478.24 267.455H1475L1504.48 211.727C1505.06 210.647 1505.67 209.891 1506.32 209.459C1506.97 208.955 1507.9 208.703 1509.13 208.703C1510.35 208.703 1511.32 209.063 1512.04 209.783C1512.76 210.503 1513.12 211.583 1513.12 213.023V282.035C1513.12 283.403 1512.76 284.483 1512.04 285.275C1511.39 285.995 1510.39 286.355 1509.02 286.355C1507.72 286.355 1506.71 285.995 1505.99 285.275C1505.27 284.483 1504.91 283.403 1504.91 282.035V221.339H1507.51L1480.51 271.991C1480 272.927 1479.46 273.611 1478.89 274.043C1478.38 274.403 1477.63 274.583 1476.62 274.583C1475.61 274.583 1474.82 274.367 1474.24 273.935C1473.67 273.503 1473.16 272.855 1472.73 271.991L1445.41 221.231H1448V282.035C1448 283.403 1447.64 284.483 1446.92 285.275C1446.27 285.995 1445.3 286.355 1444 286.355Z" fill="white" fill-opacity="0.5"/>
<path d="M1547.41 286.571C1543.81 286.571 1540.57 285.887 1537.69 284.519C1534.88 283.079 1532.65 281.135 1530.99 278.687C1529.34 276.239 1528.51 273.503 1528.51 270.479C1528.51 266.591 1529.48 263.531 1531.42 261.299C1533.44 259.067 1536.72 257.483 1541.25 256.547C1545.86 255.611 1552.12 255.143 1560.04 255.143H1564.9V260.867H1560.15C1554.32 260.867 1549.71 261.155 1546.33 261.731C1543.02 262.235 1540.68 263.135 1539.31 264.431C1538.01 265.727 1537.36 267.563 1537.36 269.939C1537.36 272.891 1538.37 275.303 1540.39 277.175C1542.48 279.047 1545.28 279.983 1548.81 279.983C1551.69 279.983 1554.21 279.299 1556.37 277.931C1558.6 276.563 1560.33 274.691 1561.56 272.315C1562.85 269.939 1563.5 267.203 1563.5 264.107V251.795C1563.5 247.331 1562.6 244.127 1560.8 242.183C1559 240.167 1556.05 239.159 1551.94 239.159C1549.42 239.159 1546.9 239.483 1544.38 240.131C1541.86 240.779 1539.2 241.823 1536.39 243.263C1535.38 243.767 1534.52 243.947 1533.8 243.803C1533.08 243.587 1532.5 243.191 1532.07 242.615C1531.64 242.039 1531.39 241.391 1531.32 240.671C1531.24 239.879 1531.39 239.123 1531.75 238.403C1532.18 237.683 1532.83 237.107 1533.69 236.675C1536.86 235.091 1539.99 233.939 1543.09 233.219C1546.18 232.499 1549.14 232.139 1551.94 232.139C1556.48 232.139 1560.22 232.895 1563.18 234.407C1566.13 235.847 1568.32 238.079 1569.76 241.103C1571.2 244.055 1571.92 247.871 1571.92 252.551V281.819C1571.92 283.259 1571.56 284.375 1570.84 285.167C1570.2 285.959 1569.22 286.355 1567.93 286.355C1566.56 286.355 1565.52 285.959 1564.8 285.167C1564.08 284.375 1563.72 283.259 1563.72 281.819V273.395H1564.69C1564.11 276.131 1563 278.471 1561.34 280.415C1559.76 282.359 1557.78 283.871 1555.4 284.951C1553.02 286.031 1550.36 286.571 1547.41 286.571Z" fill="white" fill-opacity="0.5"/>
<path d="M1592.47 286.355C1591.03 286.355 1589.95 285.959 1589.23 285.167C1588.51 284.375 1588.15 283.259 1588.15 281.819V236.783C1588.15 235.343 1588.51 234.263 1589.23 233.543C1589.95 232.751 1591 232.355 1592.37 232.355C1593.73 232.355 1594.78 232.751 1595.5 233.543C1596.29 234.263 1596.69 235.343 1596.69 236.783V246.071L1595.5 244.775C1597.01 240.599 1599.46 237.467 1602.84 235.379C1606.3 233.219 1610.26 232.139 1614.72 232.139C1618.9 232.139 1622.35 232.895 1625.09 234.407C1627.9 235.919 1629.99 238.223 1631.35 241.319C1632.72 244.343 1633.41 248.195 1633.41 252.875V281.819C1633.41 283.259 1633.01 284.375 1632.22 285.167C1631.5 285.959 1630.45 286.355 1629.09 286.355C1627.65 286.355 1626.53 285.959 1625.74 285.167C1625.02 284.375 1624.66 283.259 1624.66 281.819V253.415C1624.66 248.519 1623.69 244.955 1621.74 242.723C1619.87 240.419 1616.85 239.267 1612.67 239.267C1607.85 239.267 1603.99 240.779 1601.11 243.803C1598.31 246.755 1596.9 250.715 1596.9 255.683V281.819C1596.9 284.843 1595.43 286.355 1592.47 286.355Z" fill="white" fill-opacity="0.5"/>
<path d="M1666.06 286.571C1662.46 286.571 1659.22 285.887 1656.34 284.519C1653.53 283.079 1651.3 281.135 1649.64 278.687C1647.99 276.239 1647.16 273.503 1647.16 270.479C1647.16 266.591 1648.13 263.531 1650.08 261.299C1652.09 259.067 1655.37 257.483 1659.9 256.547C1664.51 255.611 1670.78 255.143 1678.7 255.143H1683.56V260.867H1678.8C1672.97 260.867 1668.36 261.155 1664.98 261.731C1661.67 262.235 1659.33 263.135 1657.96 264.431C1656.66 265.727 1656.02 267.563 1656.02 269.939C1656.02 272.891 1657.02 275.303 1659.04 277.175C1661.13 279.047 1663.94 279.983 1667.46 279.983C1670.34 279.983 1672.86 279.299 1675.02 277.931C1677.26 276.563 1678.98 274.691 1680.21 272.315C1681.5 269.939 1682.15 267.203 1682.15 264.107V251.795C1682.15 247.331 1681.25 244.127 1679.45 242.183C1677.65 240.167 1674.7 239.159 1670.6 239.159C1668.08 239.159 1665.56 239.483 1663.04 240.131C1660.52 240.779 1657.85 241.823 1655.04 243.263C1654.04 243.767 1653.17 243.947 1652.45 243.803C1651.73 243.587 1651.16 243.191 1650.72 242.615C1650.29 242.039 1650.04 241.391 1649.97 240.671C1649.9 239.879 1650.04 239.123 1650.4 238.403C1650.83 237.683 1651.48 237.107 1652.34 236.675C1655.51 235.091 1658.64 233.939 1661.74 233.219C1664.84 232.499 1667.79 232.139 1670.6 232.139C1675.13 232.139 1678.88 232.895 1681.83 234.407C1684.78 235.847 1686.98 238.079 1688.42 241.103C1689.86 244.055 1690.58 247.871 1690.58 252.551V281.819C1690.58 283.259 1690.22 284.375 1689.5 285.167C1688.85 285.959 1687.88 286.355 1686.58 286.355C1685.21 286.355 1684.17 285.959 1683.45 285.167C1682.73 284.375 1682.37 283.259 1682.37 281.819V273.395H1683.34C1682.76 276.131 1681.65 278.471 1679.99 280.415C1678.41 282.359 1676.43 283.871 1674.05 284.951C1671.68 286.031 1669.01 286.571 1666.06 286.571Z" fill="white" fill-opacity="0.5"/>
<path d="M1730.03 306.011C1726.21 306.011 1722.47 305.543 1718.79 304.607C1715.19 303.743 1711.92 302.339 1708.97 300.395C1708.1 299.891 1707.53 299.279 1707.24 298.559C1707.02 297.839 1706.99 297.119 1707.13 296.399C1707.27 295.751 1707.6 295.139 1708.1 294.563C1708.61 294.059 1709.18 293.735 1709.83 293.591C1710.55 293.447 1711.27 293.555 1711.99 293.915C1715.16 295.859 1718.18 297.191 1721.06 297.911C1723.94 298.631 1726.79 298.991 1729.59 298.991C1734.71 298.991 1738.56 297.623 1741.15 294.887C1743.81 292.151 1745.15 288.191 1745.15 283.007V270.803H1746.23C1745.15 274.979 1742.84 278.291 1739.31 280.739C1735.86 283.187 1731.79 284.411 1727.11 284.411C1722.29 284.411 1718.11 283.331 1714.58 281.171C1711.05 278.939 1708.32 275.843 1706.37 271.883C1704.5 267.923 1703.57 263.351 1703.57 258.167C1703.57 254.279 1704.11 250.751 1705.19 247.583C1706.27 244.343 1707.81 241.607 1709.83 239.375C1711.92 237.071 1714.4 235.307 1717.28 234.083C1720.23 232.787 1723.51 232.139 1727.11 232.139C1731.86 232.139 1735.97 233.363 1739.42 235.811C1742.88 238.187 1745.11 241.427 1746.12 245.531L1745.04 246.827V236.783C1745.04 235.343 1745.4 234.263 1746.12 233.543C1746.91 232.751 1747.99 232.355 1749.36 232.355C1750.8 232.355 1751.88 232.751 1752.6 233.543C1753.32 234.263 1753.68 235.343 1753.68 236.783V281.819C1753.68 289.811 1751.66 295.823 1747.63 299.855C1743.67 303.959 1737.8 306.011 1730.03 306.011ZM1728.73 277.283C1732.11 277.283 1735.03 276.527 1737.48 275.015C1739.93 273.431 1741.8 271.199 1743.09 268.319C1744.46 265.439 1745.15 262.055 1745.15 258.167C1745.15 252.335 1743.67 247.727 1740.72 244.343C1737.77 240.887 1733.77 239.159 1728.73 239.159C1725.42 239.159 1722.54 239.951 1720.09 241.535C1717.64 243.047 1715.73 245.243 1714.37 248.123C1713.07 250.931 1712.42 254.279 1712.42 258.167C1712.42 263.999 1713.9 268.643 1716.85 272.099C1719.8 275.555 1723.76 277.283 1728.73 277.283Z" fill="white" fill-opacity="0.5"/>
<path d="M1793.74 286.571C1788.19 286.571 1783.41 285.491 1779.37 283.331C1775.41 281.099 1772.32 277.967 1770.09 273.935C1767.93 269.903 1766.85 265.079 1766.85 259.463C1766.85 253.991 1767.93 249.239 1770.09 245.207C1772.25 241.103 1775.2 237.899 1778.94 235.595C1782.76 233.291 1787.15 232.139 1792.12 232.139C1795.65 232.139 1798.81 232.751 1801.62 233.975C1804.43 235.127 1806.81 236.819 1808.75 239.051C1810.77 241.283 1812.28 243.983 1813.29 247.151C1814.37 250.319 1814.91 253.883 1814.91 257.843C1814.91 258.995 1814.58 259.859 1813.93 260.435C1813.29 260.939 1812.35 261.191 1811.13 261.191H1773.54V255.467H1809.07L1807.35 256.871C1807.35 252.983 1806.77 249.707 1805.62 247.043C1804.47 244.307 1802.77 242.219 1800.54 240.779C1798.38 239.339 1795.65 238.619 1792.33 238.619C1788.66 238.619 1785.53 239.483 1782.94 241.211C1780.42 242.867 1778.51 245.207 1777.21 248.231C1775.92 251.183 1775.27 254.639 1775.27 258.599V259.247C1775.27 265.871 1776.85 270.911 1780.02 274.367C1783.26 277.823 1787.83 279.551 1793.74 279.551C1796.19 279.551 1798.6 279.227 1800.97 278.579C1803.42 277.931 1805.8 276.851 1808.1 275.339C1809.11 274.691 1810.01 274.403 1810.8 274.475C1811.67 274.475 1812.35 274.727 1812.85 275.231C1813.36 275.663 1813.68 276.239 1813.83 276.959C1814.04 277.607 1813.97 278.327 1813.61 279.119C1813.32 279.911 1812.71 280.595 1811.77 281.171C1809.4 282.899 1806.59 284.231 1803.35 285.167C1800.11 286.103 1796.91 286.571 1793.74 286.571Z" fill="white" fill-opacity="0.5"/>
<path d="M1832.1 286.355C1830.66 286.355 1829.58 285.959 1828.86 285.167C1828.14 284.375 1827.78 283.259 1827.78 281.819V236.783C1827.78 235.343 1828.14 234.263 1828.86 233.543C1829.58 232.751 1830.63 232.355 1832 232.355C1833.36 232.355 1834.41 232.751 1835.13 233.543C1835.92 234.263 1836.32 235.343 1836.32 236.783V246.287L1835.13 244.775C1836.5 240.743 1838.69 237.647 1841.72 235.487C1844.81 233.255 1848.48 232.139 1852.73 232.139C1857.2 232.139 1860.8 233.219 1863.53 235.379C1866.34 237.467 1868.21 240.743 1869.15 245.207H1867.53C1868.82 241.175 1871.13 238.007 1874.44 235.703C1877.82 233.327 1881.75 232.139 1886.21 232.139C1890.17 232.139 1893.41 232.895 1895.93 234.407C1898.52 235.919 1900.47 238.223 1901.76 241.319C1903.06 244.343 1903.71 248.195 1903.71 252.875V281.819C1903.71 283.259 1903.31 284.375 1902.52 285.167C1901.8 285.959 1900.72 286.355 1899.28 286.355C1897.91 286.355 1896.83 285.959 1896.04 285.167C1895.32 284.375 1894.96 283.259 1894.96 281.819V253.307C1894.96 248.483 1894.13 244.955 1892.48 242.723C1890.82 240.419 1888.01 239.267 1884.05 239.267C1879.73 239.267 1876.31 240.779 1873.79 243.803C1871.34 246.755 1870.12 250.787 1870.12 255.899V281.819C1870.12 283.259 1869.72 284.375 1868.93 285.167C1868.21 285.959 1867.13 286.355 1865.69 286.355C1864.32 286.355 1863.24 285.959 1862.45 285.167C1861.73 284.375 1861.37 283.259 1861.37 281.819V253.307C1861.37 248.483 1860.51 244.955 1858.78 242.723C1857.12 240.419 1854.35 239.267 1850.46 239.267C1846.14 239.267 1842.72 240.779 1840.2 243.803C1837.76 246.755 1836.53 250.787 1836.53 255.899V281.819C1836.53 284.843 1835.06 286.355 1832.1 286.355Z" fill="white" fill-opacity="0.5"/>
<path d="M1943.72 286.571C1938.17 286.571 1933.38 285.491 1929.35 283.331C1925.39 281.099 1922.3 277.967 1920.06 273.935C1917.9 269.903 1916.82 265.079 1916.82 259.463C1916.82 253.991 1917.9 249.239 1920.06 245.207C1922.22 241.103 1925.18 237.899 1928.92 235.595C1932.74 233.291 1937.13 232.139 1942.1 232.139C1945.62 232.139 1948.79 232.751 1951.6 233.975C1954.41 235.127 1956.78 236.819 1958.73 239.051C1960.74 241.283 1962.26 243.983 1963.26 247.151C1964.34 250.319 1964.88 253.883 1964.88 257.843C1964.88 258.995 1964.56 259.859 1963.91 260.435C1963.26 260.939 1962.33 261.191 1961.1 261.191H1923.52V255.467H1959.05L1957.32 256.871C1957.32 252.983 1956.75 249.707 1955.6 247.043C1954.44 244.307 1952.75 242.219 1950.52 240.779C1948.36 239.339 1945.62 238.619 1942.31 238.619C1938.64 238.619 1935.51 239.483 1932.92 241.211C1930.4 242.867 1928.49 245.207 1927.19 248.231C1925.9 251.183 1925.25 254.639 1925.25 258.599V259.247C1925.25 265.871 1926.83 270.911 1930 274.367C1933.24 277.823 1937.81 279.551 1943.72 279.551C1946.16 279.551 1948.58 279.227 1950.95 278.579C1953.4 277.931 1955.78 276.851 1958.08 275.339C1959.09 274.691 1959.99 274.403 1960.78 274.475C1961.64 274.475 1962.33 274.727 1962.83 275.231C1963.34 275.663 1963.66 276.239 1963.8 276.959C1964.02 277.607 1963.95 278.327 1963.59 279.119C1963.3 279.911 1962.69 280.595 1961.75 281.171C1959.38 282.899 1956.57 284.231 1953.33 285.167C1950.09 286.103 1946.88 286.571 1943.72 286.571Z" fill="white" fill-opacity="0.5"/>
<path d="M1981.86 286.355C1980.42 286.355 1979.34 285.959 1978.62 285.167C1977.9 284.375 1977.54 283.259 1977.54 281.819V236.783C1977.54 235.343 1977.9 234.263 1978.62 233.543C1979.34 232.751 1980.39 232.355 1981.76 232.355C1983.12 232.355 1984.17 232.751 1984.89 233.543C1985.68 234.263 1986.08 235.343 1986.08 236.783V246.071L1984.89 244.775C1986.4 240.599 1988.85 237.467 1992.23 235.379C1995.69 233.219 1999.65 232.139 2004.11 232.139C2008.29 232.139 2011.74 232.895 2014.48 234.407C2017.29 235.919 2019.38 238.223 2020.74 241.319C2022.11 244.343 2022.8 248.195 2022.8 252.875V281.819C2022.8 283.259 2022.4 284.375 2021.61 285.167C2020.89 285.959 2019.84 286.355 2018.48 286.355C2017.04 286.355 2015.92 285.959 2015.13 285.167C2014.41 284.375 2014.05 283.259 2014.05 281.819V253.415C2014.05 248.519 2013.08 244.955 2011.13 242.723C2009.26 240.419 2006.24 239.267 2002.06 239.267C1997.24 239.267 1993.38 240.779 1990.5 243.803C1987.7 246.755 1986.29 250.715 1986.29 255.683V281.819C1986.29 284.843 1984.82 286.355 1981.86 286.355Z" fill="white" fill-opacity="0.5"/>
<path d="M2059.99 286.571C2055.88 286.571 2052.43 285.851 2049.62 284.411C2046.88 282.899 2044.83 280.739 2043.46 277.931C2042.09 275.051 2041.41 271.559 2041.41 267.455V239.915H2034.17C2032.95 239.915 2032.01 239.627 2031.37 239.051C2030.72 238.403 2030.39 237.539 2030.39 236.459C2030.39 235.379 2030.72 234.551 2031.37 233.975C2032.01 233.399 2032.95 233.111 2034.17 233.111H2041.41V220.691C2041.41 219.251 2041.81 218.171 2042.6 217.451C2043.39 216.659 2044.47 216.263 2045.84 216.263C2047.21 216.263 2048.25 216.659 2048.97 217.451C2049.76 218.171 2050.16 219.251 2050.16 220.691V233.111H2063.77C2064.99 233.111 2065.93 233.399 2066.57 233.975C2067.22 234.551 2067.55 235.379 2067.55 236.459C2067.55 237.539 2067.22 238.403 2066.57 239.051C2065.93 239.627 2064.99 239.915 2063.77 239.915H2050.16V266.591C2050.16 270.695 2051.02 273.827 2052.75 275.987C2054.48 278.075 2057.29 279.119 2061.17 279.119C2062.54 279.119 2063.69 278.975 2064.63 278.687C2065.64 278.399 2066.47 278.255 2067.11 278.255C2067.76 278.183 2068.3 278.399 2068.73 278.903C2069.17 279.407 2069.38 280.271 2069.38 281.495C2069.38 282.359 2069.2 283.151 2068.84 283.871C2068.55 284.591 2068.01 285.095 2067.22 285.383C2066.36 285.671 2065.21 285.923 2063.77 286.139C2062.4 286.427 2061.14 286.571 2059.99 286.571Z" fill="white" fill-opacity="0.5"/>
<path d="M313.22 71.0534V19.1207C313.22 9.66519 305.571 2 296.136 2H56.9492C34.9431 2.02516 17.1099 19.8959 17.0847 41.9483V153.261C16.9025 153.261 16.669 153.335 16.5153 153.358C7.09236 154.683 0.0631043 162.73 0 172.265V233.609C2.33682 281.944 36.8217 322.661 84.0342 332.829C84.9465 333.057 85.9009 333.057 86.8133 332.829C109.215 327.807 129.49 315.895 144.805 298.759H307.525C323.244 298.74 335.981 285.975 336 270.224V99.0172C335.983 85.4628 326.469 73.7838 313.22 71.0534ZM56.9492 13.4138H296.136C299.281 13.4138 301.831 15.9689 301.831 19.1207V36.2414H45.5593C42.4141 36.2414 39.8644 38.7964 39.8644 41.9483C39.8644 45.1001 42.4141 47.6552 45.5593 47.6552H301.831V70.4827H56.9492C41.2231 70.4827 28.4746 57.7074 28.4746 41.9483C28.4746 26.1891 41.2231 13.4138 56.9492 13.4138ZM85.4237 321.404C12.5288 302.217 11.3898 236.411 11.3898 233.609V172.265C11.3847 168.4 14.2499 165.135 18.0757 164.647C41.2817 161.804 62.9747 151.607 79.9908 135.541C81.4154 134.067 83.3758 133.235 85.4237 133.235C87.4717 133.235 89.432 134.067 90.8567 135.541C107.873 151.607 129.566 161.804 152.772 164.647C156.598 165.135 159.463 168.4 159.458 172.265V233.609C157.245 276.21 126.971 312.111 85.4237 321.404ZM307.525 287.345H153.415C163.773 271.249 169.78 252.732 170.847 233.609V172.265C170.786 162.74 163.772 154.696 154.361 153.358C133.628 150.868 114.225 141.829 98.9606 127.552C91.4357 120.179 79.4118 120.179 71.8869 127.552C59.8133 139.18 44.8043 147.289 28.4746 151.007V69.855C35.9555 77.5552 46.2249 81.8979 56.9492 81.8965H307.525C316.961 81.8965 324.61 89.5617 324.61 99.0172V156.086H296.136C280.41 156.086 267.661 168.861 267.661 184.621C267.661 200.38 280.41 213.155 296.136 213.155H324.61V270.224C324.61 274.765 322.81 279.119 319.606 282.33C316.402 285.541 312.057 287.345 307.525 287.345ZM324.61 201.741H296.136C286.7 201.741 279.051 194.076 279.051 184.621C279.051 175.165 286.7 167.5 296.136 167.5H324.61V201.741Z" fill="#A8A989"/>
<path d="M296.136 190.328C299.281 190.328 301.831 187.772 301.831 184.621C301.831 181.469 299.281 178.914 296.136 178.914C292.99 178.914 290.441 181.469 290.441 184.621C290.441 187.772 292.99 190.328 296.136 190.328Z" fill="#A8A989"/>
<path d="M199.322 93.3103H187.932C184.787 93.3103 182.237 95.8654 182.237 99.0172C182.237 102.169 184.787 104.724 187.932 104.724H199.322C202.467 104.724 205.017 102.169 205.017 99.0172C205.017 95.8654 202.467 93.3103 199.322 93.3103Z" fill="#A8A989"/>
<path d="M313.22 99.0172C313.22 95.8654 310.671 93.3103 307.525 93.3103H222.102C218.957 93.3103 216.407 95.8654 216.407 99.0172C216.407 102.169 218.957 104.724 222.102 104.724H307.525C310.671 104.724 313.22 102.169 313.22 99.0172Z" fill="#A8A989"/>
<path d="M143.512 174.651C123.574 170.932 104.88 162.281 89.1254 149.483C87.002 147.683 83.891 147.683 81.7676 149.483C66.0148 162.283 47.3195 170.934 27.3812 174.651C24.7292 175.193 22.8247 177.531 22.8252 180.243V233.609C22.8252 235.926 23.52 290.558 83.8007 309.06C84.8881 309.393 86.0505 309.393 87.1379 309.06C145.414 291.157 147.965 239.538 148.068 233.609V180.243C148.068 177.531 146.164 175.193 143.512 174.651ZM136.678 233.512C136.593 238.437 134.434 281.632 85.4237 297.617C34.739 281.067 34.1695 235.56 34.1695 233.609V184.855C52.746 180.725 70.2233 172.653 85.4237 161.182C100.624 172.653 118.101 180.725 136.678 184.855V233.512Z" fill="#A8A989"/>
<path d="M51.2542 213.155C52.7645 213.155 54.2128 212.553 55.2805 211.483L72.3653 194.362C74.5235 192.123 74.4926 188.564 72.2959 186.362C70.0992 184.161 66.5472 184.13 64.3127 186.293L47.2279 203.413C45.5997 205.046 45.1127 207.5 45.994 209.632C46.8752 211.764 48.9512 213.155 51.2542 213.155Z" fill="#A8A989"/>
<path d="M47.2279 245.724C49.4518 247.952 53.0567 247.952 55.2805 245.724L106.535 194.362C108.693 192.123 108.662 188.564 106.465 186.362C104.269 184.161 100.717 184.13 98.4822 186.293L47.2279 237.655C45.0047 239.883 45.0047 243.496 47.2279 245.724Z" fill="#A8A989"/>
</svg>
