<svg width="2006" height="307" viewBox="0 0 2006 307" fill="none" xmlns="http://www.w3.org/2000/svg">
<path d="M397 180V5H461.75C475.75 5 487.333 7.33333 496.5 12C505.667 16.6667 512.5 23.0833 517 31.25C521.5 39.4167 523.75 48.5833 523.75 58.75C523.75 68.4167 521.583 77.3333 517.25 85.5C512.917 93.5 506.167 100 497 105C487.833 109.833 476.083 112.25 461.75 112.25H429V180H397ZM429 86.25H459.75C470.917 86.25 478.917 83.8333 483.75 79C488.75 74 491.25 67.25 491.25 58.75C491.25 50.0833 488.75 43.3333 483.75 38.5C478.917 33.5 470.917 31 459.75 31H429V86.25Z" fill="#343A40"/>
<path d="M548.855 180V5H613.605C627.605 5 639.189 7.33333 648.355 12C657.522 16.6667 664.355 23.0833 668.855 31.25C673.355 39.4167 675.605 48.5833 675.605 58.75C675.605 68.4167 673.439 77.3333 669.105 85.5C664.772 93.5 658.022 100 648.855 105C639.689 109.833 627.939 112.25 613.605 112.25H580.855V180H548.855ZM580.855 86.25H611.605C622.772 86.25 630.772 83.8333 635.605 79C640.605 74 643.105 67.25 643.105 58.75C643.105 50.0833 640.605 43.3333 635.605 38.5C630.772 33.5 622.772 31 611.605 31H580.855V86.25Z" fill="#343A40"/>
<path d="M777.211 183C760.711 183 746.294 179.25 733.961 171.75C721.628 164.25 712.044 153.833 705.211 140.5C698.378 127 694.961 111.333 694.961 93.5C694.961 75.5 698.461 59.6667 705.461 46C712.628 32.1667 722.711 21.4167 735.711 13.75C748.878 5.91667 764.461 2 782.461 2C802.961 2 819.961 6.91667 833.461 16.75C846.961 26.5833 855.711 40.1667 859.711 57.5H823.961C821.294 49.3333 816.461 43 809.461 38.5C802.461 33.8333 793.461 31.5 782.461 31.5C764.961 31.5 751.461 37.0833 741.961 48.25C732.461 59.25 727.711 74.4167 727.711 93.75C727.711 113.083 732.378 128.083 741.711 138.75C751.211 149.25 764.044 154.5 780.211 154.5C796.044 154.5 807.961 150.25 815.961 141.75C824.128 133.083 829.044 121.75 830.711 107.75H786.461V83.75H862.961V180H833.461L830.961 157C825.294 165.333 818.211 171.75 809.711 176.25C801.211 180.75 790.378 183 777.211 183Z" fill="#343A40"/>
<path d="M953.641 180V5H1066.64V30.75H985.641V79.75H1051.14V105H985.641V180H953.641Z" fill="#343A40"/>
<path d="M1107.84 36.75C1102 36.75 1097.17 35 1093.34 31.5C1089.67 28 1087.84 23.5833 1087.84 18.25C1087.84 12.9167 1089.67 8.58333 1093.34 5.24999C1097.17 1.75 1102 0 1107.84 0C1113.67 0 1118.42 1.75 1122.09 5.24999C1125.92 8.58333 1127.84 12.9167 1127.84 18.25C1127.84 23.5833 1125.92 28 1122.09 31.5C1118.42 35 1113.67 36.75 1107.84 36.75ZM1091.84 180V56H1123.84V180H1091.84Z" fill="#343A40"/>
<path d="M1157.24 180V56H1185.49L1187.99 77C1191.82 69.6667 1197.32 63.8333 1204.49 59.5C1211.82 55.1667 1220.4 53 1230.24 53C1245.57 53 1257.49 57.8333 1265.99 67.5C1274.49 77.1667 1278.74 91.3333 1278.74 110V180H1246.74V113C1246.74 102.333 1244.57 94.1667 1240.24 88.5C1235.9 82.8333 1229.15 80 1219.99 80C1210.99 80 1203.57 83.1667 1197.74 89.5C1192.07 95.8333 1189.24 104.667 1189.24 116V180H1157.24Z" fill="#343A40"/>
<path d="M1352.09 183C1341.42 183 1332.67 181.333 1325.84 178C1319 174.5 1313.92 169.917 1310.59 164.25C1307.25 158.583 1305.59 152.333 1305.59 145.5C1305.59 134 1310.09 124.667 1319.09 117.5C1328.09 110.333 1341.59 106.75 1359.59 106.75H1391.09V103.75C1391.09 95.25 1388.67 89 1383.84 85C1379 81 1373 79 1365.84 79C1359.34 79 1353.67 80.5833 1348.84 83.75C1344 86.75 1341 91.25 1339.84 97.25H1308.59C1309.42 88.25 1312.42 80.4167 1317.59 73.75C1322.92 67.0833 1329.75 62 1338.09 58.5C1346.42 54.8333 1355.75 53 1366.09 53C1383.75 53 1397.67 57.4167 1407.84 66.25C1418 75.0833 1423.09 87.5833 1423.09 103.75V180H1395.84L1392.84 160C1389.17 166.667 1384 172.167 1377.34 176.5C1370.84 180.833 1362.42 183 1352.09 183ZM1359.34 158C1368.5 158 1375.59 155 1380.59 149C1385.75 143 1389 135.583 1390.34 126.75H1363.09C1354.59 126.75 1348.5 128.333 1344.84 131.5C1341.17 134.5 1339.34 138.25 1339.34 142.75C1339.34 147.583 1341.17 151.333 1344.84 154C1348.5 156.667 1353.34 158 1359.34 158Z" fill="#343A40"/>
<path d="M1453.62 180V56H1481.87L1484.37 77C1488.21 69.6667 1493.71 63.8333 1500.87 59.5C1508.21 55.1667 1516.79 53 1526.62 53C1541.96 53 1553.87 57.8333 1562.37 67.5C1570.87 77.1667 1575.12 91.3333 1575.12 110V180H1543.12V113C1543.12 102.333 1540.96 94.1667 1536.62 88.5C1532.29 82.8333 1525.54 80 1516.37 80C1507.37 80 1499.96 83.1667 1494.12 89.5C1488.46 95.8333 1485.62 104.667 1485.62 116V180H1453.62Z" fill="#343A40"/>
<path d="M1666.47 183C1653.81 183 1642.64 180.25 1632.97 174.75C1623.31 169.25 1615.64 161.583 1609.97 151.75C1604.47 141.917 1601.72 130.667 1601.72 118C1601.72 105.333 1604.47 94.0833 1609.97 84.25C1615.64 74.4167 1623.31 66.75 1632.97 61.25C1642.64 55.75 1653.81 53 1666.47 53C1682.31 53 1695.64 57.1667 1706.47 65.5C1717.31 73.6667 1724.22 85 1727.22 99.5H1693.47C1691.81 93.5 1688.47 88.8333 1683.47 85.5C1678.64 82 1672.89 80.25 1666.22 80.25C1657.39 80.25 1649.89 83.5833 1643.72 90.25C1637.56 96.9167 1634.47 106.167 1634.47 118C1634.47 129.833 1637.56 139.083 1643.72 145.75C1649.89 152.417 1657.39 155.75 1666.22 155.75C1672.89 155.75 1678.64 154.083 1683.47 150.75C1688.47 147.417 1691.81 142.667 1693.47 136.5H1727.22C1724.22 150.5 1717.31 161.75 1706.47 170.25C1695.64 178.75 1682.31 183 1666.47 183Z" fill="#343A40"/>
<path d="M1772.88 36.75C1767.04 36.75 1762.21 35 1758.38 31.5C1754.71 28 1752.88 23.5833 1752.88 18.25C1752.88 12.9167 1754.71 8.58333 1758.38 5.24999C1762.21 1.75 1767.04 0 1772.88 0C1778.71 0 1783.46 1.75 1787.12 5.24999C1790.96 8.58333 1792.88 12.9167 1792.88 18.25C1792.88 23.5833 1790.96 28 1787.12 31.5C1783.46 35 1778.71 36.75 1772.88 36.75ZM1756.88 180V56H1788.88V180H1756.88Z" fill="#343A40"/>
<path d="M1865.03 183C1854.36 183 1845.61 181.333 1838.78 178C1831.94 174.5 1826.86 169.917 1823.53 164.25C1820.19 158.583 1818.53 152.333 1818.53 145.5C1818.53 134 1823.03 124.667 1832.03 117.5C1841.03 110.333 1854.53 106.75 1872.53 106.75H1904.03V103.75C1904.03 95.25 1901.61 89 1896.78 85C1891.94 81 1885.94 79 1878.78 79C1872.28 79 1866.61 80.5833 1861.78 83.75C1856.94 86.75 1853.94 91.25 1852.78 97.25H1821.53C1822.36 88.25 1825.36 80.4167 1830.53 73.75C1835.86 67.0833 1842.69 62 1851.03 58.5C1859.36 54.8333 1868.69 53 1879.03 53C1896.69 53 1910.61 57.4167 1920.78 66.25C1930.94 75.0833 1936.03 87.5833 1936.03 103.75V180H1908.78L1905.78 160C1902.11 166.667 1896.94 172.167 1890.28 176.5C1883.78 180.833 1875.36 183 1865.03 183ZM1872.28 158C1881.44 158 1888.53 155 1893.53 149C1898.69 143 1901.94 135.583 1903.28 126.75H1876.03C1867.53 126.75 1861.44 128.333 1857.78 131.5C1854.11 134.5 1852.28 138.25 1852.28 142.75C1852.28 147.583 1854.11 151.333 1857.78 154C1861.44 156.667 1866.28 158 1872.28 158Z" fill="#343A40"/>
<path d="M1966.56 180V0H1998.56V180H1966.56Z" fill="#343A40"/>
<path d="M397 305.4V252.9H415.375C419.475 252.9 422.875 253.6 425.575 255C428.275 256.35 430.275 258.225 431.575 260.625C432.925 262.975 433.6 265.65 433.6 268.65C433.6 271.5 432.95 274.125 431.65 276.525C430.4 278.875 428.425 280.75 425.725 282.15C423.025 283.55 419.575 284.25 415.375 284.25H404.95V305.4H397ZM404.95 277.725H415C418.75 277.725 421.425 276.925 423.025 275.325C424.675 273.675 425.5 271.45 425.5 268.65C425.5 265.75 424.675 263.5 423.025 261.9C421.425 260.25 418.75 259.425 415 259.425H404.95V277.725Z" fill="#343A40" fill-opacity="0.35"/>
<path d="M448.208 305.4V252.9H466.283C470.433 252.9 473.833 253.6 476.483 255C479.183 256.4 481.183 258.3 482.483 260.7C483.783 263.05 484.433 265.675 484.433 268.575C484.433 271.825 483.558 274.775 481.808 277.425C480.108 280.075 477.433 281.975 473.783 283.125L484.958 305.4H475.733L465.533 284.25H456.158V305.4H448.208ZM456.158 278.25H465.833C469.433 278.25 472.058 277.375 473.708 275.625C475.408 273.875 476.258 271.6 476.258 268.8C476.258 266 475.433 263.775 473.783 262.125C472.133 260.425 469.458 259.575 465.758 259.575H456.158V278.25Z" fill="#343A40" fill-opacity="0.35"/>
<path d="M524.813 306.3C519.613 306.3 515.063 305.15 511.163 302.85C507.263 300.55 504.213 297.375 502.013 293.325C499.813 289.225 498.713 284.5 498.713 279.15C498.713 273.8 499.813 269.1 502.013 265.05C504.213 260.95 507.263 257.75 511.163 255.45C515.063 253.15 519.613 252 524.813 252C530.013 252 534.563 253.15 538.463 255.45C542.363 257.75 545.388 260.95 547.538 265.05C549.738 269.1 550.838 273.8 550.838 279.15C550.838 284.5 549.738 289.225 547.538 293.325C545.388 297.375 542.363 300.55 538.463 302.85C534.563 305.15 530.013 306.3 524.813 306.3ZM524.813 299.175C528.413 299.175 531.538 298.375 534.188 296.775C536.888 295.175 538.988 292.875 540.488 289.875C541.988 286.875 542.738 283.3 542.738 279.15C542.738 275 541.988 271.425 540.488 268.425C538.988 265.425 536.888 263.125 534.188 261.525C531.538 259.925 528.413 259.125 524.813 259.125C521.213 259.125 518.063 259.925 515.363 261.525C512.663 263.125 510.563 265.425 509.063 268.425C507.613 271.425 506.888 275 506.888 279.15C506.888 283.3 507.613 286.875 509.063 289.875C510.563 292.875 512.663 295.175 515.363 296.775C518.063 298.375 521.213 299.175 524.813 299.175Z" fill="#343A40" fill-opacity="0.35"/>
<path d="M566.444 305.4V252.9H599.369V259.35H574.394V275.925H595.094V282.3H574.394V305.4H566.444Z" fill="#343A40" fill-opacity="0.35"/>
<path d="M613.917 305.4V252.9H647.292V259.35H621.867V275.7H645.042V282H621.867V298.95H647.292V305.4H613.917Z" fill="#343A40" fill-opacity="0.35"/>
<path d="M680.839 306.3C676.989 306.3 673.614 305.625 670.714 304.275C667.814 302.925 665.539 301 663.889 298.5C662.289 296 661.464 293.025 661.414 289.575H669.814C669.864 292.375 670.839 294.75 672.739 296.7C674.639 298.65 677.314 299.625 680.764 299.625C683.814 299.625 686.189 298.9 687.889 297.45C689.639 295.95 690.514 294.05 690.514 291.75C690.514 289.9 690.089 288.4 689.239 287.25C688.439 286.1 687.314 285.15 685.864 284.4C684.464 283.65 682.839 282.975 680.989 282.375C679.139 281.775 677.189 281.125 675.139 280.425C671.089 279.075 668.039 277.325 665.989 275.175C663.989 273.025 662.989 270.2 662.989 266.7C662.939 263.75 663.614 261.175 665.014 258.975C666.464 256.775 668.464 255.075 671.014 253.875C673.614 252.625 676.639 252 680.089 252C683.489 252 686.464 252.625 689.014 253.875C691.614 255.125 693.639 256.875 695.089 259.125C696.539 261.325 697.289 263.9 697.339 266.85H688.939C688.939 265.5 688.589 264.225 687.889 263.025C687.189 261.775 686.164 260.75 684.814 259.95C683.464 259.15 681.814 258.75 679.864 258.75C677.364 258.7 675.289 259.325 673.639 260.625C672.039 261.925 671.239 263.725 671.239 266.025C671.239 268.075 671.839 269.65 673.039 270.75C674.239 271.85 675.889 272.775 677.989 273.525C680.089 274.225 682.489 275.05 685.189 276C687.789 276.85 690.114 277.875 692.164 279.075C694.214 280.275 695.839 281.85 697.039 283.8C698.289 285.75 698.914 288.225 698.914 291.225C698.914 293.875 698.239 296.35 696.889 298.65C695.539 300.9 693.514 302.75 690.814 304.2C688.114 305.6 684.789 306.3 680.839 306.3Z" fill="#343A40" fill-opacity="0.35"/>
<path d="M731.68 306.3C727.83 306.3 724.455 305.625 721.555 304.275C718.655 302.925 716.38 301 714.73 298.5C713.13 296 712.305 293.025 712.255 289.575H720.655C720.705 292.375 721.68 294.75 723.58 296.7C725.48 298.65 728.155 299.625 731.605 299.625C734.655 299.625 737.03 298.9 738.73 297.45C740.48 295.95 741.355 294.05 741.355 291.75C741.355 289.9 740.93 288.4 740.08 287.25C739.28 286.1 738.155 285.15 736.705 284.4C735.305 283.65 733.68 282.975 731.83 282.375C729.98 281.775 728.03 281.125 725.98 280.425C721.93 279.075 718.88 277.325 716.83 275.175C714.83 273.025 713.83 270.2 713.83 266.7C713.78 263.75 714.455 261.175 715.855 258.975C717.305 256.775 719.305 255.075 721.855 253.875C724.455 252.625 727.48 252 730.93 252C734.33 252 737.305 252.625 739.855 253.875C742.455 255.125 744.48 256.875 745.93 259.125C747.38 261.325 748.13 263.9 748.18 266.85H739.78C739.78 265.5 739.43 264.225 738.73 263.025C738.03 261.775 737.005 260.75 735.655 259.95C734.305 259.15 732.655 258.75 730.705 258.75C728.205 258.7 726.13 259.325 724.48 260.625C722.88 261.925 722.08 263.725 722.08 266.025C722.08 268.075 722.68 269.65 723.88 270.75C725.08 271.85 726.73 272.775 728.83 273.525C730.93 274.225 733.33 275.05 736.03 276C738.63 276.85 740.955 277.875 743.005 279.075C745.055 280.275 746.68 281.85 747.88 283.8C749.13 285.75 749.755 288.225 749.755 291.225C749.755 293.875 749.08 296.35 747.73 298.65C746.38 300.9 744.355 302.75 741.655 304.2C738.955 305.6 735.63 306.3 731.68 306.3Z" fill="#343A40" fill-opacity="0.35"/>
<path d="M765.197 305.4V252.9H773.147V305.4H765.197Z" fill="#343A40" fill-opacity="0.35"/>
<path d="M814.776 306.3C809.576 306.3 805.026 305.15 801.126 302.85C797.226 300.55 794.176 297.375 791.976 293.325C789.776 289.225 788.676 284.5 788.676 279.15C788.676 273.8 789.776 269.1 791.976 265.05C794.176 260.95 797.226 257.75 801.126 255.45C805.026 253.15 809.576 252 814.776 252C819.976 252 824.526 253.15 828.426 255.45C832.326 257.75 835.351 260.95 837.501 265.05C839.701 269.1 840.801 273.8 840.801 279.15C840.801 284.5 839.701 289.225 837.501 293.325C835.351 297.375 832.326 300.55 828.426 302.85C824.526 305.15 819.976 306.3 814.776 306.3ZM814.776 299.175C818.376 299.175 821.501 298.375 824.151 296.775C826.851 295.175 828.951 292.875 830.451 289.875C831.951 286.875 832.701 283.3 832.701 279.15C832.701 275 831.951 271.425 830.451 268.425C828.951 265.425 826.851 263.125 824.151 261.525C821.501 259.925 818.376 259.125 814.776 259.125C811.176 259.125 808.026 259.925 805.326 261.525C802.626 263.125 800.526 265.425 799.026 268.425C797.576 271.425 796.851 275 796.851 279.15C796.851 283.3 797.576 286.875 799.026 289.875C800.526 292.875 802.626 295.175 805.326 296.775C808.026 298.375 811.176 299.175 814.776 299.175Z" fill="#343A40" fill-opacity="0.35"/>
<path d="M856.407 305.4V252.9H864.357L890.682 292.425V252.9H898.632V305.4H890.682L864.357 265.875V305.4H856.407Z" fill="#343A40" fill-opacity="0.35"/>
<path d="M912.663 305.4L932.013 252.9H940.713L959.913 305.4H951.513L947.013 292.575H925.563L921.063 305.4H912.663ZM927.813 286.275H944.763L936.288 262.35L927.813 286.275Z" fill="#343A40" fill-opacity="0.35"/>
<path d="M973.984 305.4V252.9H981.934V299.1H1005.78V305.4H973.984Z" fill="#343A40" fill-opacity="0.35"/>
<path d="M1046.74 305.4V252.9H1079.66V259.35H1054.69V275.925H1075.39V282.3H1054.69V305.4H1046.74Z" fill="#343A40" fill-opacity="0.35"/>
<path d="M1094.21 305.4V252.9H1102.16V305.4H1094.21Z" fill="#343A40" fill-opacity="0.35"/>
<path d="M1119.56 305.4V252.9H1127.51L1153.84 292.425V252.9H1161.79V305.4H1153.84L1127.51 265.875V305.4H1119.56Z" fill="#343A40" fill-opacity="0.35"/>
<path d="M1175.82 305.4L1195.17 252.9H1203.87L1223.07 305.4H1214.67L1210.17 292.575H1188.72L1184.22 305.4H1175.82ZM1190.97 286.275H1207.92L1199.44 262.35L1190.97 286.275Z" fill="#343A40" fill-opacity="0.35"/>
<path d="M1237.14 305.4V252.9H1245.09L1271.42 292.425V252.9H1279.37V305.4H1271.42L1245.09 265.875V305.4H1237.14Z" fill="#343A40" fill-opacity="0.35"/>
<path d="M1320.17 306.3C1314.97 306.3 1310.47 305.175 1306.67 302.925C1302.92 300.625 1300.02 297.45 1297.97 293.4C1295.92 289.3 1294.9 284.575 1294.9 279.225C1294.9 273.825 1295.92 269.1 1297.97 265.05C1300.02 260.95 1302.92 257.75 1306.67 255.45C1310.47 253.15 1314.97 252 1320.17 252C1326.32 252 1331.35 253.5 1335.25 256.5C1339.15 259.5 1341.62 263.7 1342.67 269.1H1333.82C1333.12 266.05 1331.62 263.625 1329.32 261.825C1327.02 260.025 1323.95 259.125 1320.1 259.125C1314.85 259.125 1310.7 260.925 1307.65 264.525C1304.6 268.075 1303.07 272.975 1303.07 279.225C1303.07 285.425 1304.6 290.3 1307.65 293.85C1310.7 297.4 1314.85 299.175 1320.1 299.175C1323.95 299.175 1327.02 298.325 1329.32 296.625C1331.62 294.925 1333.12 292.6 1333.82 289.65H1342.67C1341.62 294.85 1339.15 298.925 1335.25 301.875C1331.35 304.825 1326.32 306.3 1320.17 306.3Z" fill="#343A40" fill-opacity="0.35"/>
<path d="M1358.16 305.4V252.9H1366.11V305.4H1358.16Z" fill="#343A40" fill-opacity="0.35"/>
<path d="M1380.14 305.4L1399.49 252.9H1408.19L1427.39 305.4H1418.99L1414.49 292.575H1393.04L1388.54 305.4H1380.14ZM1395.29 286.275H1412.24L1403.76 262.35L1395.29 286.275Z" fill="#343A40" fill-opacity="0.35"/>
<path d="M1441.46 305.4V252.9H1449.41V299.1H1473.26V305.4H1441.46Z" fill="#343A40" fill-opacity="0.35"/>
<path d="M1510.84 305.4L1530.19 252.9H1538.89L1558.09 305.4H1549.69L1545.19 292.575H1523.74L1519.24 305.4H1510.84ZM1525.99 286.275H1542.94L1534.46 262.35L1525.99 286.275Z" fill="#343A40" fill-opacity="0.35"/>
<path d="M1589.48 306.3C1585.63 306.3 1582.26 305.625 1579.36 304.275C1576.46 302.925 1574.18 301 1572.53 298.5C1570.93 296 1570.11 293.025 1570.06 289.575H1578.46C1578.51 292.375 1579.48 294.75 1581.38 296.7C1583.28 298.65 1585.96 299.625 1589.41 299.625C1592.46 299.625 1594.83 298.9 1596.53 297.45C1598.28 295.95 1599.16 294.05 1599.16 291.75C1599.16 289.9 1598.73 288.4 1597.88 287.25C1597.08 286.1 1595.96 285.15 1594.51 284.4C1593.11 283.65 1591.48 282.975 1589.63 282.375C1587.78 281.775 1585.83 281.125 1583.78 280.425C1579.73 279.075 1576.68 277.325 1574.63 275.175C1572.63 273.025 1571.63 270.2 1571.63 266.7C1571.58 263.75 1572.26 261.175 1573.66 258.975C1575.11 256.775 1577.11 255.075 1579.66 253.875C1582.26 252.625 1585.28 252 1588.73 252C1592.13 252 1595.11 252.625 1597.66 253.875C1600.26 255.125 1602.28 256.875 1603.73 259.125C1605.18 261.325 1605.93 263.9 1605.98 266.85H1597.58C1597.58 265.5 1597.23 264.225 1596.53 263.025C1595.83 261.775 1594.81 260.75 1593.46 259.95C1592.11 259.15 1590.46 258.75 1588.51 258.75C1586.01 258.7 1583.93 259.325 1582.28 260.625C1580.68 261.925 1579.88 263.725 1579.88 266.025C1579.88 268.075 1580.48 269.65 1581.68 270.75C1582.88 271.85 1584.53 272.775 1586.63 273.525C1588.73 274.225 1591.13 275.05 1593.83 276C1596.43 276.85 1598.76 277.875 1600.81 279.075C1602.86 280.275 1604.48 281.85 1605.68 283.8C1606.93 285.75 1607.56 288.225 1607.56 291.225C1607.56 293.875 1606.88 296.35 1605.53 298.65C1604.18 300.9 1602.16 302.75 1599.46 304.2C1596.76 305.6 1593.43 306.3 1589.48 306.3Z" fill="#343A40" fill-opacity="0.35"/>
<path d="M1640.33 306.3C1636.48 306.3 1633.1 305.625 1630.2 304.275C1627.3 302.925 1625.03 301 1623.38 298.5C1621.78 296 1620.95 293.025 1620.9 289.575H1629.3C1629.35 292.375 1630.33 294.75 1632.23 296.7C1634.13 298.65 1636.8 299.625 1640.25 299.625C1643.3 299.625 1645.68 298.9 1647.38 297.45C1649.13 295.95 1650 294.05 1650 291.75C1650 289.9 1649.58 288.4 1648.73 287.25C1647.93 286.1 1646.8 285.15 1645.35 284.4C1643.95 283.65 1642.33 282.975 1640.48 282.375C1638.63 281.775 1636.68 281.125 1634.63 280.425C1630.58 279.075 1627.53 277.325 1625.48 275.175C1623.48 273.025 1622.48 270.2 1622.48 266.7C1622.43 263.75 1623.1 261.175 1624.5 258.975C1625.95 256.775 1627.95 255.075 1630.5 253.875C1633.1 252.625 1636.13 252 1639.58 252C1642.98 252 1645.95 252.625 1648.5 253.875C1651.1 255.125 1653.13 256.875 1654.58 259.125C1656.03 261.325 1656.78 263.9 1656.83 266.85H1648.43C1648.43 265.5 1648.08 264.225 1647.38 263.025C1646.68 261.775 1645.65 260.75 1644.3 259.95C1642.95 259.15 1641.3 258.75 1639.35 258.75C1636.85 258.7 1634.78 259.325 1633.13 260.625C1631.53 261.925 1630.73 263.725 1630.73 266.025C1630.73 268.075 1631.33 269.65 1632.53 270.75C1633.73 271.85 1635.38 272.775 1637.48 273.525C1639.58 274.225 1641.98 275.05 1644.68 276C1647.28 276.85 1649.6 277.875 1651.65 279.075C1653.7 280.275 1655.33 281.85 1656.53 283.8C1657.78 285.75 1658.4 288.225 1658.4 291.225C1658.4 293.875 1657.73 296.35 1656.38 298.65C1655.03 300.9 1653 302.75 1650.3 304.2C1647.6 305.6 1644.28 306.3 1640.33 306.3Z" fill="#343A40" fill-opacity="0.35"/>
<path d="M1673.84 305.4V252.9H1681.79V305.4H1673.84Z" fill="#343A40" fill-opacity="0.35"/>
<path d="M1716.52 306.3C1712.67 306.3 1709.3 305.625 1706.4 304.275C1703.5 302.925 1701.22 301 1699.57 298.5C1697.97 296 1697.15 293.025 1697.1 289.575H1705.5C1705.55 292.375 1706.52 294.75 1708.42 296.7C1710.32 298.65 1713 299.625 1716.45 299.625C1719.5 299.625 1721.87 298.9 1723.57 297.45C1725.32 295.95 1726.2 294.05 1726.2 291.75C1726.2 289.9 1725.77 288.4 1724.92 287.25C1724.12 286.1 1723 285.15 1721.55 284.4C1720.15 283.65 1718.52 282.975 1716.67 282.375C1714.82 281.775 1712.87 281.125 1710.82 280.425C1706.77 279.075 1703.72 277.325 1701.67 275.175C1699.67 273.025 1698.67 270.2 1698.67 266.7C1698.62 263.75 1699.3 261.175 1700.7 258.975C1702.15 256.775 1704.15 255.075 1706.7 253.875C1709.3 252.625 1712.32 252 1715.77 252C1719.17 252 1722.15 252.625 1724.7 253.875C1727.3 255.125 1729.32 256.875 1730.77 259.125C1732.22 261.325 1732.97 263.9 1733.02 266.85H1724.62C1724.62 265.5 1724.27 264.225 1723.57 263.025C1722.87 261.775 1721.85 260.75 1720.5 259.95C1719.15 259.15 1717.5 258.75 1715.55 258.75C1713.05 258.7 1710.97 259.325 1709.32 260.625C1707.72 261.925 1706.92 263.725 1706.92 266.025C1706.92 268.075 1707.52 269.65 1708.72 270.75C1709.92 271.85 1711.57 272.775 1713.67 273.525C1715.77 274.225 1718.17 275.05 1720.87 276C1723.47 276.85 1725.8 277.875 1727.85 279.075C1729.9 280.275 1731.52 281.85 1732.72 283.8C1733.97 285.75 1734.6 288.225 1734.6 291.225C1734.6 293.875 1733.92 296.35 1732.57 298.65C1731.22 300.9 1729.2 302.75 1726.5 304.2C1723.8 305.6 1720.47 306.3 1716.52 306.3Z" fill="#343A40" fill-opacity="0.35"/>
<path d="M1761.39 305.4V259.35H1745.86V252.9H1784.79V259.35H1769.34V305.4H1761.39Z" fill="#343A40" fill-opacity="0.35"/>
<path d="M1789.89 305.4L1809.24 252.9H1817.94L1837.14 305.4H1828.74L1824.24 292.575H1802.79L1798.29 305.4H1789.89ZM1805.04 286.275H1821.99L1813.51 262.35L1805.04 286.275Z" fill="#343A40" fill-opacity="0.35"/>
<path d="M1851.21 305.4V252.9H1859.16L1885.48 292.425V252.9H1893.43V305.4H1885.48L1859.16 265.875V305.4H1851.21Z" fill="#343A40" fill-opacity="0.35"/>
<path d="M1934.24 306.3C1929.04 306.3 1924.54 305.175 1920.74 302.925C1916.99 300.625 1914.09 297.45 1912.04 293.4C1909.99 289.3 1908.96 284.575 1908.96 279.225C1908.96 273.825 1909.99 269.1 1912.04 265.05C1914.09 260.95 1916.99 257.75 1920.74 255.45C1924.54 253.15 1929.04 252 1934.24 252C1940.39 252 1945.41 253.5 1949.31 256.5C1953.21 259.5 1955.69 263.7 1956.74 269.1H1947.89C1947.19 266.05 1945.69 263.625 1943.39 261.825C1941.09 260.025 1938.01 259.125 1934.16 259.125C1928.91 259.125 1924.76 260.925 1921.71 264.525C1918.66 268.075 1917.14 272.975 1917.14 279.225C1917.14 285.425 1918.66 290.3 1921.71 293.85C1924.76 297.4 1928.91 299.175 1934.16 299.175C1938.01 299.175 1941.09 298.325 1943.39 296.625C1945.69 294.925 1947.19 292.6 1947.89 289.65H1956.74C1955.69 294.85 1953.21 298.925 1949.31 301.875C1945.41 304.825 1940.39 306.3 1934.24 306.3Z" fill="#343A40" fill-opacity="0.35"/>
<path d="M1972.23 305.4V252.9H2005.6V259.35H1980.18V275.7H2003.35V282H1980.18V298.95H2005.6V305.4H1972.23Z" fill="#343A40" fill-opacity="0.35"/>
<path d="M179.067 110.988H136.933C134.025 110.988 131.667 113.348 131.667 116.259V263.835C131.667 266.746 134.025 269.106 136.933 269.106H179.067C181.975 269.106 184.333 266.746 184.333 263.835V116.259C184.333 113.347 181.975 110.988 179.067 110.988ZM173.8 258.565H142.2V121.529H173.8V258.565Z" fill="#F6B720"/>
<path d="M305.467 89.9057H263.333C260.425 89.9057 258.067 92.2656 258.067 95.1763V263.835C258.067 266.746 260.425 269.106 263.333 269.106H305.467C308.375 269.106 310.733 266.746 310.733 263.835V95.1763C310.733 92.2649 308.375 89.9057 305.467 89.9057ZM300.2 258.565H268.6V100.447H300.2V258.565Z" fill="#F6B720"/>
<path d="M242.267 205.859H200.133C197.225 205.859 194.867 208.219 194.867 211.129V263.835C194.867 266.746 197.225 269.106 200.133 269.106H242.267C245.175 269.106 247.533 266.746 247.533 263.835V211.129C247.533 208.218 245.175 205.859 242.267 205.859ZM237 258.565H205.4V216.4H237V258.565Z" fill="#F6B720"/>
<path d="M52.6667 132.07H10.5333C7.62482 132.07 5.26667 134.43 5.26667 137.341V263.835C5.26667 266.746 7.62482 269.106 10.5333 269.106H52.6667C55.5752 269.106 57.9333 266.746 57.9333 263.835V137.341C57.9333 134.43 55.5752 132.07 52.6667 132.07ZM47.4 258.565H15.8V142.612H47.4V258.565Z" fill="#F6B720"/>
<path d="M115.867 163.694H73.7333C70.8248 163.694 68.4667 166.054 68.4667 168.965V263.835C68.4667 266.746 70.8248 269.106 73.7333 269.106H115.867C118.775 269.106 121.133 266.746 121.133 263.835V168.965C121.133 166.053 118.775 163.694 115.867 163.694ZM110.6 258.565H79V174.235H110.6V258.565Z" fill="#F6B720"/>
<path d="M284.706 0.000560726C272.987 -0.0837688 263.419 9.35455 263.335 21.0823C263.292 27.0038 265.722 32.6743 270.038 36.7247L226.325 116.959C222.365 115.862 218.159 116.056 214.317 117.512L173.653 56.4427C181.444 47.7956 180.755 34.4643 172.114 26.6678C163.473 18.8713 150.152 19.5597 142.361 28.2075C136.637 34.5612 135.316 43.7465 139.019 51.4574L107.045 78.089C98.2734 71.6859 86.0547 73.1188 79 81.3779L52.1874 67.9589C54.6193 56.5725 47.3664 45.3692 35.9891 42.9361C24.6111 40.5024 13.4162 47.76 10.985 59.1465C8.55307 70.533 15.8053 81.7363 27.1832 84.1693C28.6349 84.4796 30.1155 84.6357 31.6 84.6351C37.6731 84.6153 43.4382 81.9576 47.4 77.3511L74.2126 90.7701C71.6826 102.135 78.8381 113.401 90.1943 115.933C101.551 118.464 112.808 111.304 115.338 99.9389C116.367 95.3173 115.811 90.4835 113.76 86.2163L145.734 59.584C151.245 63.6654 158.439 64.6958 164.873 62.3247L205.526 123.395C197.756 132.061 198.478 145.391 207.138 153.167C215.798 160.943 229.117 160.221 236.887 151.554C244.562 142.994 243.966 129.858 235.547 122.03L279.26 41.7957C280.939 42.2345 282.666 42.4611 284.401 42.4703C296.12 42.5547 305.688 33.1164 305.772 21.3886C305.856 9.6609 296.424 0.085549 284.706 0.000560726ZM31.6 74.0939C25.7823 74.0939 21.0667 69.3747 21.0667 63.5527C21.0667 57.7307 25.7823 53.0115 31.6 53.0115C37.4177 53.0115 42.1333 57.7307 42.1333 63.5527C42.1333 69.3747 37.4177 74.0939 31.6 74.0939ZM94.8 105.717C88.9823 105.717 84.2667 100.998 84.2667 95.1763C84.2667 89.3542 88.9823 84.6351 94.8 84.6351C100.618 84.6351 105.333 89.3542 105.333 95.1763C105.333 100.998 100.618 105.717 94.8 105.717ZM158 53.0115C152.182 53.0115 147.467 48.2924 147.467 42.4703C147.467 36.6483 152.182 31.9292 158 31.9292C163.818 31.9292 168.533 36.6483 168.533 42.4703C168.533 48.2924 163.818 53.0115 158 53.0115ZM221.2 147.882C215.382 147.882 210.667 143.163 210.667 137.341C210.667 131.519 215.382 126.8 221.2 126.8C227.018 126.8 231.733 131.519 231.733 137.341C231.733 143.163 227.018 147.882 221.2 147.882ZM284.4 31.9292C278.582 31.9292 273.867 27.21 273.867 21.388C273.867 15.5659 278.582 10.8468 284.4 10.8468C290.218 10.8468 294.933 15.5659 294.933 21.388C294.933 27.21 290.218 31.9292 284.4 31.9292Z" fill="#E54C23"/>
<path d="M310.733 274.376H5.26667C2.35815 274.376 0 276.736 0 279.647V300.729C0 303.64 2.35815 306 5.26667 306H310.733C313.642 306 316 303.64 316 300.729V279.647C316 276.736 313.642 274.376 310.733 274.376ZM305.467 295.459H10.5333V284.918H305.467V295.459Z" fill="#F6B720"/>
</svg>
