<svg width="507" height="683" viewBox="0 0 507 683" fill="none" xmlns="http://www.w3.org/2000/svg">
<path d="M120 469.333C120.229 469.333 120.453 469.333 120.667 469.323C127.719 468.958 133.333 463.135 133.333 456C133.333 448.864 127.719 443.041 120.667 442.682C120.453 442.666 120.229 442.666 120 442.666C112.641 442.666 106.667 448.64 106.667 456C106.667 463.359 112.641 469.333 120 469.333Z" fill="#A8A989"/>
<path d="M0.00012207 509.333C0.00012207 575.515 26.0053 623.104 77.297 650.776C117.63 672.531 173.568 682.666 253.333 682.666C333.099 682.666 389.036 672.531 429.37 650.776C480.661 623.099 506.667 575.515 506.667 509.333C506.667 404.604 442.745 278.177 349.812 222.729C354.302 217.557 357.797 211.495 360.005 204.807C368.74 178.156 354.734 149.396 328.656 139.661L372.156 45.5937C375.177 39.0573 372.458 31.2969 366.016 28.0729L312.682 1.40625C308.927 -0.46875 304.51 -0.46875 300.755 1.40625L253.385 25.0937L206.016 1.40625C202.26 -0.46875 197.844 -0.46875 194.089 1.40625L140.755 28.0729C134.313 31.2969 131.594 39.0625 134.62 45.6041L178.193 139.713C152.214 149.484 138.271 178.198 147.016 204.828C149.198 211.448 152.646 217.458 157.083 222.588C64.0678 277.943 0.00012207 404.479 0.00012207 509.333ZM164.255 46.1406L200.052 28.2396L247.422 51.9271C251.177 53.8021 255.594 53.8021 259.349 51.9271L306.719 28.2396L342.526 46.1406L302.599 132.474C270.214 125.516 236.615 125.531 204.245 132.505L164.255 46.1406ZM188.568 164.312C232.24 150.042 277.135 150.828 318.401 164.302C331.745 168.698 339.042 183.141 334.672 196.479C332.849 201.995 329.24 206.635 324.49 209.771C301.156 199.755 277.25 194.667 253.333 194.667C229.495 194.667 205.667 199.724 182.401 209.672C177.714 206.557 174.146 201.953 172.349 196.495C167.964 183.141 175.25 168.698 188.568 164.312ZM253.333 221.333C275.396 221.333 297.578 226.479 319.266 236.635C407.896 278.109 480 400.442 480 509.333C480 565.739 459.297 604.328 416.708 627.302C380.417 646.88 328.505 656 253.333 656C178.161 656 126.25 646.88 89.9584 627.302C47.3699 604.328 26.6668 565.739 26.6668 509.333C26.6668 381.963 130.109 221.333 253.333 221.333Z" fill="#A8A989"/>
<path d="M253.333 496C247.635 496 241.49 492.416 236.021 485.911C231.281 480.276 222.87 479.547 217.234 484.286C211.594 489.026 210.87 497.437 215.609 503.073C222.734 511.552 231.12 517.458 240 520.437V536C240 543.364 245.969 549.333 253.333 549.333C260.698 549.333 266.667 543.364 266.667 536V520.375C282.187 514.87 293.333 500.052 293.333 482.666C293.333 460.609 275.391 442.666 253.333 442.666C245.979 442.666 240 436.687 240 429.333C240 421.979 245.979 416 253.333 416C258.057 416 263.042 418.411 267.755 422.969C273.047 428.088 281.49 427.953 286.609 422.661C291.729 417.364 291.589 408.927 286.297 403.807C279.531 397.255 272.76 393.557 266.667 391.531V376C266.667 368.635 260.698 362.667 253.333 362.667C245.969 362.667 240 368.635 240 376V391.625C224.479 397.13 213.333 411.953 213.333 429.333C213.333 451.39 231.276 469.333 253.333 469.333C260.682 469.333 266.667 475.312 266.667 482.666C266.667 490.021 260.687 496 253.333 496Z" fill="#A8A989"/>
<path d="M125.412 416C132.188 418.89 140.021 415.734 142.906 408.958C161.792 364.635 205.135 336 253.333 336C328.135 336 381.432 402.989 372.609 469.146C372.594 469.25 372.583 469.354 372.573 469.453C372.562 469.541 372.552 469.63 372.547 469.719C366.667 529.317 314.307 576 253.333 576C205.245 576 161.896 547.354 142.896 503.015C139.995 496.245 132.156 493.109 125.391 496.01C118.62 498.911 115.484 506.75 118.385 513.521C141.594 567.677 194.563 602.666 253.333 602.666C327.802 602.666 391.781 545.505 399.068 472.495C410.047 389.302 342.906 309.333 253.333 309.333C194.427 309.333 141.453 344.338 118.375 398.505C115.484 405.281 118.641 413.114 125.412 416Z" fill="#A8A989"/>
</svg>
